<svg xmlns="http://www.w3.org/2000/svg" width="3555" height="720"><path fill="none" fill-opacity="0" stroke="#000" stroke-width=".3" d="M0 720h3555V0H0v720m701-382c.67 6.92.66 15.15 0 22 0 77.69-35.58 146.17-85 204-3.96 4.63-8.42 9.08-13 13-63.42 54.2-141.17 89.87-226 86-84.83-3.87-157.72-34.47-217.25-94.75C100.23 507.97 69.87 429.77 70 346c.13-83.77 32.9-160.83 91.75-220.25C220.6 66.34 298.11 34.4 381 33c82.89-1.4 164.86 30.16 223.75 88.25C663.65 179.34 701 255.46 701 338m349-89c5.62 5.62 11.85 10.97 17 17 42.22 49.41 93.82 90.64 136 140 4.57 4.57 9.75 10.33 15 14-.01-7.49 0-14.46 0-22v-23c0-7.6-.01-15.37 0-23 .01-7.63-.02-15.38 0-23 .02-7.62-.06-15.41 0-23s-.12-15.5 0-23-.27-15.69 0-23c.27-7.31-.61-16.12 0-23 .61-6.88-1.34-17.08 0-23 1.34-5.92-3.45-18.89 1-22 4.92-3.45 15.93 1.8 22 0s15.61 1.35 22 0v334c-38.8-38.41-76.58-78.11-115-117-7.6-7.6-16.03-14.85-23-23-30.56-35.76-67.93-66.08-99-101v226c-2.2 3.14-17.98.98-22 1-4.02.02-19.83 2.09-22-1-3.2-4.57 1.36-14.1 0-20s.62-14.53 0-21c-.62-6.47.29-14.32 0-21s.12-13.2 0-20c-.12-6.8.06-14.12 0-21-.06-6.88.03-14.13 0-21-.03-6.87.01-13.12 0-20-.01-6.88.01-14.09 0-21s0-14.11 0-21V180c23.62 22.11 45.25 46.11 68 69M912 511c-2.73 1.91-10.46-.46-14 0-3.54.46-10.4.68-14 0-3.6-.68-12.11 2.02-15 0-4.38-3.06.24-15.08-1-21s.56-16.12 0-23c-.56-6.88.25-15.69 0-23-.25-7.31.11-15.5 0-23s.05-15.41 0-23 .02-15.37 0-23c-.02-7.63 0-15.36 0-23 0-7.64-.02-15.37 0-23 .02-7.63-.05-15.41 0-23s-.12-15.5 0-23-.27-15.69 0-23c.27-7.31-.61-16.12 0-23 .61-6.88-1.34-17.08 0-23 1.34-5.92-3.45-18.89 1-22 2.73-1.91 10.46.46 14 0 3.54-.46 10.4-.68 14 0 3.6.68 12.11-2.02 15 0 4.38 3.06-.24 15.08 1 21s-.56 16.12 0 23c.56 6.88-.25 15.69 0 23 .25 7.31-.11 15.5 0 23s-.05 15.41 0 23-.02 15.37 0 23c.02 7.63 0 15.36 0 23 0 7.64.02 15.37 0 23-.02 7.63.05 15.41 0 23s.12 15.49 0 23 .27 15.69 0 23c-.27 7.31.61 16.12 0 23-.61 6.88 1.34 17.08 0 23-1.34 5.92 3.45 18.89-1 22m556-89c20.18-35.65 35.92-76.01 53.92-114.08 18.01-38.06 34.09-77.77 52.08-115.92h45c-49.05 110.53-100.38 220.42-149 331-52.23-109.18-101.92-220.52-152-331 11.49 2.23 31.35-2.97 42 0 10.65 2.97 9.74 18.35 15.31 26.69 5.57 8.35 8.18 19.68 13.44 28.56 5.27 8.87 8.05 19.71 13.03 28.97 4.97 9.26 8.76 20.02 13.53 29.47 4.76 9.46 8.35 19.46 13 29.01 4.64 9.54 9.09 18.85 13.46 28.53 4.37 9.68 8.72 19.12 13.15 28.85 4.44 9.72 9.38 19.87 13.08 29.92m441-186c-4.58 3.21-14.08-1.36-20 0s-14.49-.61-21 0-14.22-.27-21 0c-6.77.27-14.11-.11-21 0-6.89.11-14.07-.02-21 0s-14.07.05-21 0-14.12.16-21 0c-6.88-.16-13.15.41-20 0s-14.16.88-21 0-14.29 1.93-21 0c-6.71-1.93-13.85 5.52-18.3-2.7-4.45-8.22-10.11-19.22-14.47-27.53-4.36-8.31-2.68-6.73-7.23-13.77h248c3.14 2.2.98 17.98 1 22 .02 4.02 2.09 19.83-1 22m112 274c-2.16 3.09-17.91 1.14-22 1-4.09-.14-20.74 2.23-23-1-2.97-4.24 1.33-13.62 0-19-1.33-5.38.58-13.11 0-19-.58-5.89.21-12.9 0-19s-.01-12.83 0-19-.24-12.89 0-19c.24-6.11-.64-13.08 0-19s-1.45-13.56 0-19c1.45-5.44-3.06-15.63 0-20 2.79-3.99 13.8.14 19-1 5.2-1.14 13.99.52 20 0s13.62.25 20 0c6.38-.25 13.44.14 20 0 6.56-.14 13.33.12 20 0s13.23.19 20 0 14.18.37 21 0c23.29-1.26 44.51-16.81 51.93-40.07 7.41-23.27 2.01-50.98-19.68-67.18-21.68-16.21-50.76-13.15-79.25-12.75-28.49.4-63.88-.3-93 0v-44c31.25-.71 69.44.95 100 0 30.56-.95 62.24-1.22 86.7 13.31 24.45 14.52 34.78 29.59 46.08 53.91 11.29 24.33 8.11 58.95-3.56 82-11.67 23.06-27.68 39.96-51.22 49.78 19.16 40.28 41.61 79.83 61 120-11.21 1.76-21.71-2.34-33 0s-15.27-6.52-18.92-15.08c-3.66-8.55-7.69-14.32-11.83-22.17-4.14-7.84-7.24-14.94-11.17-22.83-3.94-7.88-7.15-13.58-11.38-21.62-4.24-8.03-7.35-13.49-11.62-22.38-4.27-8.88-17.86-5.7-28.08-5.92-10.22-.22-23.25.12-34 0s-23.1.09-34 0v109m360-154c6.61.45 13.38-.22 20 0 6.62.22 13.4-.14 20 0s13.47-.16 20 0c6.53.16 13.63-.27 20 0 6.37.27 13.98-.57 20 0s14.77-1.24 20 0 17.15-3.07 20 1c3.38 4.83-1.53 14.8 0 21 1.53 6.2-.69 13.97 0 21 .69 7.03.13 12.4-.98 20.02-1.11 7.63-.78 9.23-3.95 18.05-3.16 8.82-8.57 20.16-13.99 28.01-5.41 7.85-3.11 4.37-9.38 11.62-6.27 7.25-16.12 14.31-23.78 19.22-7.66 4.91-7.58 3.56-14 7-6.41 3.45-9.45 3.37-15.93 5.07-6.47 1.7-12.12 2.87-18.99 3.01-5.77.7-12.49 1.35-19 1-6.51-.35-13.45.19-20 0-6.55-.19-13.49.17-20 0s-13.64.26-20 0c-6.36-.26-13.99.52-20 0s-14.78 1.14-20 0c-5.22-1.14-16.22 2.98-19-1-3.45-4.92 1.8-15.92 0-22s1.35-15.61 0-22c39.8.06 91.38-.08 130 0 38.62.08 63.06-31.28 65-66-27.43-.5-64.53.66-91 0s-48.14-8.54-67.23-24.77c-19.09-16.23-28.72-34.03-34.55-57.45-5.82-23.42-.98-54.6 12.55-75.01 13.53-20.41 26.19-31.78 49.31-42.69 23.11-10.92 54.92-9.54 82.92-9.08 28 .46 63.33-.35 92 0v44c-29.07-.57-63.47.76-92 0s-57.62-2.83-79.25 13.75c-21.62 16.58-27.75 41.17-20.77 65.27 6.97 24.11 29.04 37.99 52.02 40.98m252-164c-.02 106.33.01 212.67 0 319h-44c-.01-106.33.01-212.67 0-319h44m96 0c17.87 38.15 34.74 77.23 52.78 115.22 18.03 38 34.24 78.91 54.22 114.78 3.47-8.72 7.2-17.13 11.31-25.69 4.1-8.57 7.5-17.78 11.62-26.38 4.12-8.61 8.52-16.9 12.38-25.62 3.85-8.73 7.7-17.65 11.62-26.38 3.91-8.74 8.01-17.4 11.85-26.15 3.83-8.76 7.58-17.51 11.99-26.01s7.02-18.04 11.54-26.46c4.51-8.43 7.23-17.73 12-26 4.76-8.28 4.71-22.05 16.69-21.31 11.98.74 25.85-.55 38 0-25.4 55.08-49.63 111.05-74.92 166.08C2884.79 413.1 2860.35 469.8 2834 523c-49.31-110.65-100.4-220.68-151-331h46m546 0v44h-36c-12.12 0-24.88-.01-37 0-12.12.01-23.92-.02-36 0-12.07.02-25.03-.04-37 0-11.97.04-24.27-.09-36 0s-25.79-.2-37 0-10.8-12.39-16.3-19.69c-5.51-7.31-8.04-16.65-12.7-24.31h248M1909 373c-4.51 3.16-14.25-1.41-20 0s-13.63-.61-20 0c-6.37.61-14.38-.29-21 0-6.62.29-13.25-.12-20 0s-14.2-.06-21 0c-6.8.06-13.17-.03-20 0s-14.16-.01-21 0-13.15 0-20 0h-62v-44h225c3.14 2.2.98 17.98 1 22 .02 4.02 2.09 19.83-1 22m1366-44c-.01 14.67.01 29.33 0 44h-225v-44h225M1909 511c-4.23 4.23-14.58-.18-21 1-6.41 1.18-15.9-.53-23 0s-15.59-.24-23 0-15.46-.11-23 0c-7.54.11-15.42-.04-23 0s-15.43 0-23 0-15.49.03-23 0-15.67.08-23 0-16.07.19-23 0-16.96.42-23 0c-6.04-.42-19.09 1.83-19-2 .11-4.38 4.79-9.05 6.77-13.23 1.98-4.18 4.59-9.58 7.15-13.85 2.57-4.26 3.76-8.77 7-13 3.25-4.22 13.31-1.27 19.08-1.92 5.77-.65 14.65.31 21 0s13.35.13 20 0 14.2.05 21 0c6.8-.05 14.18 0 21 0s13.18-.05 20 0 14.19-.13 21 0c6.82.13 14.32-.3 21 0s13.59-.7 20 0 15.09-1.49 21 0 16.33-3.27 21 0c3.19 2.23 1.03 16.66 1 21-.03 4.34 2.04 18.96-1 22m1366 0c-3.06 4.37-15.1-.24-21 1s-16.17-.57-23 0c-6.83.57-15.8-.26-23 0-7.2.26-14.59-.11-22 0s-15.47-.05-23 0c-7.53.05-15.43-.01-23 0s-15.46.01-23 0c-7.54-.01-14.47.05-22 0-7.53-.05-15.47.12-23 0-7.53-.12-15.55.26-23 0-7.44-.26-15.45 1.03-22-1 4.92-13.77 12.07-16.36 16.77-31.23 4.7-14.87 21.97-12.3 37.23-11.77 15.26.53 32.23-.24 48 0 15.77.24 33.01-.11 49 0 15.99.11 31.9-.06 48 0s32.84-.04 49 0v43Z"/><path fill="none" fill-opacity="0" stroke="#DBDBDB" stroke-width=".3" d="m603 577 13-13c49.42-57.83 85-126.31 85-204v-22c0-82.54-37.35-158.66-96.25-216.75C545.86 63.16 463.89 31.6 381 33c-82.89 1.4-160.4 33.34-219.25 92.75C102.9 185.17 70.13 262.23 70 346c-.13 83.77 30.23 161.97 89.75 222.25C219.28 628.53 292.17 659.13 377 663c84.83 3.87 162.58-31.8 226-86M396 44c39.82 3.85 86.7 11.96 121.69 30.31 35 18.34 60.64 35.08 88.06 63.94 27.42 28.85 44.11 55.49 60.18 91.82C681.99 266.41 691.47 316.56 690 358c-1.47 41.44-12.8 86.25-30.31 121.7-17.5 35.44-35.22 60.58-63.94 88.05s-55.52 44.16-91.83 60.17C467.62 643.94 416.37 653.63 375 652c-41.37-1.63-86.29-12.81-121.69-30.3-35.41-17.5-60.63-35.46-88.06-63.95-27.43-28.49-44.19-55.76-60.17-91.83C89.09 429.86 79.41 379.12 81 338c1.59-41.12 12.8-86.54 30.31-121.69 17.5-35.16 35.28-61.08 63.94-88.06 28.65-26.98 55.42-45.15 91.97-60.03C303.78 53.34 353.9 39.93 396 44Z"/><path fill="none" fill-opacity="0" stroke="#000" stroke-width=".3" d="M396 44c-42.1-4.07-92.22 9.34-128.78 24.22-36.55 14.88-63.32 33.05-91.97 60.03-28.66 26.98-46.44 52.9-63.94 88.06C93.8 251.46 82.59 296.88 81 338c-1.59 41.12 8.09 91.86 24.08 127.92 15.98 36.07 32.74 63.34 60.17 91.83 27.43 28.49 52.65 46.45 88.06 63.95 35.4 17.49 80.32 28.67 121.69 30.3 41.37 1.63 92.62-8.06 128.92-24.08 36.31-16.01 63.11-32.7 91.83-60.17s46.44-52.61 63.94-88.05C677.2 444.25 688.53 399.44 690 358c1.47-41.44-8.01-91.59-24.07-127.93-16.07-36.33-32.76-62.97-60.18-91.82-27.42-28.86-53.06-45.6-88.06-63.94C482.7 55.96 435.82 47.85 396 44m39 47c65.32 6.32 125.97 35.09 171.75 85.25C652.54 226.4 677.53 299.84 672 368c-5.53 68.16-35.07 124.87-85.25 171.75C536.57 586.63 462.34 609.99 394 605c-68.34-4.99-124.51-36.14-171.3-85.7-46.79-49.55-70.45-123.05-64.77-190.37 5.67-67.33 33.09-126.98 84.32-172.68C293.48 110.55 364.85 84.21 435 91Z"/><path fill="none" fill-opacity="0" stroke="#DBDBDB" stroke-width=".3" d="M435 91c-70.15-6.79-141.52 19.55-192.75 65.25-51.23 45.7-78.65 105.35-84.32 172.68-5.68 67.32 17.98 140.82 64.77 190.37 46.79 49.56 102.96 80.71 171.3 85.7 68.34 4.99 142.57-18.37 192.75-65.25C636.93 492.87 666.47 436.16 672 368c5.53-68.16-19.46-141.6-65.25-191.75C560.97 126.09 500.32 97.32 435 91m-10 12c131.72 0 238.19 120.57 236 250-2.19 129.43-114.41 241.26-245 241-130.59-.26-247-107.2-247-240-.4-4.09-.39-8.98 0-13 0-122.89 109.63-238 234-238 6.92-.67 15.15-.66 22 0Z"/><path fill="none" fill-opacity="0" stroke="#5A5A5A" stroke-width=".3" d="M403 103h22c-6.85-.66-15.08-.67-22 0Z"/><path fill="none" fill-opacity="0" stroke="#000" stroke-width=".3" d="M169 341v13c0 132.8 116.41 239.74 247 240 130.59.26 242.81-111.57 245-241 2.19-129.43-104.28-250-236-250h-22c-124.37 0-234 115.11-234 238m296-192c18.8 1.82 40.91 7.6 58.22 14.78 17.32 7.17 31.9 15.15 46.53 26.47 14.62 11.33 24.51 22.06 36.5 36.5 11.98 14.44 17.31 29.19 26.53 46.47 9.21 17.29 5.85 38.29 16.99 56.01 11.14 17.72-2.09 39.11-6.55 56.99-4.46 17.88-9.32 38.37-18.53 54.47-9.2 16.11-17.69 28.8-30.44 42.56-12.76 13.75-24.35 22.91-39.95 33.05-15.6 10.15-31.79 17.04-50.32 22.68-18.54 5.63-45.47 9.35-65.98 8.02-20.51-1.33-42.67-5.25-60.68-12.32-18.01-7.08-32.56-14.5-47.4-25.6-14.85-11.09-25.76-20.97-37.67-35.33-11.92-14.36-19.29-28.39-27.22-45.77-7.94-17.39-13.46-37.03-16.01-57-2.54-19.98-.52-49.01 3.97-67.99 4.5-18.98 11.37-36.04 20.76-52.24 9.4-16.19 17.6-28.8 31-42 13.4-13.2 24.67-22.7 40.95-32.05 16.27-9.35 32.18-16.89 51.37-21.63 19.19-4.73 46.63-8.13 67.93-6.07Z"/><path fill="none" fill-opacity="0" stroke="#DBDBDB" stroke-width=".3" d="M465 149c-21.3-2.06-48.74 1.34-67.93 6.07-19.19 4.74-35.1 12.28-51.37 21.63-16.28 9.35-27.55 18.85-40.95 32.05-13.4 13.2-21.6 25.81-31 42-9.39 16.2-16.26 33.26-20.76 52.24-4.49 18.98-6.51 48.01-3.97 67.99 2.55 19.97 8.07 39.61 16.01 57 7.93 17.38 15.3 31.41 27.22 45.77 11.91 14.36 22.82 24.24 37.67 35.33 14.84 11.1 29.39 18.52 47.4 25.6 18.01 7.07 40.17 10.99 60.68 12.32 20.51 1.33 47.44-2.39 65.98-8.02 18.53-5.64 34.72-12.53 50.32-22.68 15.6-10.14 27.19-19.3 39.95-33.05 12.75-13.76 21.24-26.45 30.44-42.56 9.21-16.1 14.07-36.59 18.53-54.47 4.46-17.88 17.69-39.27 6.55-56.99s-7.78-38.72-16.99-56.01c-9.22-17.28-14.55-32.03-26.53-46.47-11.99-14.44-21.88-25.17-36.5-36.5-14.63-11.32-29.21-19.3-46.53-26.47C505.91 156.6 483.8 150.82 465 149m-9 12c84.26 0 162.72 69.97 176 152-16.6-72.66-90.8-123.75-165-115s-133.5 73.71-134 149 57.8 141.49 132.07 150.93C539.34 507.36 616.3 457.2 631 383c-5.18 37.03-23.28 72.2-52.25 99.75-28.97 27.55-62.84 44.49-102.82 51.18-39.99 6.69-91.65-3.64-125.63-25.23-33.97-21.6-54.82-45.08-73.07-80.93-18.25-35.85-22.25-92.28-10.3-130.84 11.94-38.57 29.33-66.81 60.77-93.23 31.43-26.42 71.04-41.75 112.3-42.7 5.04-.49 11.03-.48 16 0m146 113c-40.46-42.68-110.9-42.26-152.25-1.25-41.35 41.01-40.75 111.7 1.5 152 42.24 40.31 113.1 39.17 152.75-4.75-42.72 72.9-144.72 88.41-209.08 35.08-64.37-53.33-65.55-156.97-2.67-211.83C455.13 188.38 558.87 201.14 602 274m-6 11c-43.92-18.48-94.05 15.96-94 63 .05 47.04 50.04 81.71 94 63-34.57 40.22-98.57 42.09-136.75 5.75-38.17-36.35-38.13-100.03 0-136.5C497.37 243.77 560.83 244 596 285m16 26c-38.99 5.75-40.23 68.35 0 73-31.25 40.09-97.31 15.18-98-35-.69-50.18 64.32-77.71 98-38m5 12c4.12 15.95 4.12 34.03 0 50-31.07.7-31.02-50.62 0-50Z"/><path fill="none" fill-opacity="0" stroke="#666" stroke-width=".3" d="M440 161h16c-4.97-.48-10.96-.49-16 0Z"/><path fill="none" fill-opacity="0" stroke="#000" stroke-width=".3" d="M456 161h-16c-41.26.95-80.87 16.28-112.3 42.7-31.44 26.42-48.83 54.66-60.77 93.23-11.95 38.56-7.95 94.99 10.3 130.84 18.25 35.85 39.1 59.33 73.07 80.93 33.98 21.59 85.64 31.92 125.63 25.23 39.98-6.69 73.85-23.63 102.82-51.18S625.82 420.03 631 383c-14.7 74.2-91.66 124.36-165.93 114.93C390.8 488.49 332.5 422.29 333 347s59.8-140.25 134-149 148.4 42.34 165 115c-13.28-82.03-91.74-152-176-152Z"/><path fill="none" fill-opacity="0" stroke="#FDFDFD" stroke-width=".3" d="M982 511h44V285c31.07 34.92 68.44 65.24 99 101 7.6 7.6 16.03 14.84 23 23 38.42 38.89 76.2 78.59 115 117V192c-6.39 1.35-15.93-1.8-22 0s-17.08-3.45-22 0v46c0 7.68-.01 15.3 0 23 .01 7.7-.02 15.27 0 23s-.04 16.31 0 24c.04 7.69-.1 15.46 0 23 .1 7.54-.23 15.7 0 23 .23 7.3-.51 16.17 0 23 .51 6.83-1.12 17.21 0 23 1.12 5.79-1.97 19.99-1 21-5.37-2.25-11.33-10.71-15-15-42.18-49.36-93.78-90.59-136-140-5.62-5.62-11.85-10.97-17-17-22.75-22.89-44.38-46.89-68-69v145c0 6.89-.01 14.09 0 21s-.01 14.12 0 21c.01 6.88-.03 13.13 0 20 .03 6.87-.06 14.12 0 21 .06 6.88-.12 14.2 0 21 .12 6.8-.29 13.32 0 20s-.62 14.53 0 21c.62 6.47-1.36 15.1 0 21s-3.2 15.43 0 20Z"/><path fill="none" fill-opacity="0" stroke="#777" stroke-width=".3" d="M869 511V192c-4.45 3.11.34 16.08-1 22-1.34 5.92.61 16.12 0 23-.61 6.88.27 15.69 0 23-.27 7.31.12 15.5 0 23s.05 15.41 0 23 .02 15.37 0 23c-.02 7.63 0 15.36 0 23 0 7.64-.02 15.37 0 23 .02 7.63-.05 15.41 0 23s-.11 15.5 0 23-.25 15.69 0 23c.25 7.31-.56 16.12 0 23 .56 6.88-1.24 17.08 0 23 1.24 5.92-3.38 17.94 1 21Z"/><path fill="none" fill-opacity="0" stroke="#FFF" stroke-width=".3" d="M869 511c2.89 2.02 11.4-.68 15 0 3.6.68 10.46.46 14 0 3.54-.46 11.27 1.91 14 0V192c-2.89-2.02-11.4.68-15 0-3.6-.68-10.46-.46-14 0-3.54.46-11.27-1.91-14 0v319Z"/><path fill="none" fill-opacity="0" stroke="#8B8B8B" stroke-width=".3" d="M912 511c4.45-3.11-.34-16.08 1-22 1.34-5.92-.61-16.12 0-23 .61-6.88-.27-15.69 0-23 .27-7.31-.12-15.49 0-23s-.05-15.41 0-23-.02-15.37 0-23c.02-7.63 0-15.36 0-23 0-7.64.02-15.37 0-23-.02-7.63.05-15.41 0-23s.11-15.5 0-23 .25-15.69 0-23c-.25-7.31.56-16.12 0-23-.56-6.88 1.24-17.08 0-23-1.24-5.92 3.38-17.94-1-21v319Z"/><path fill="none" fill-opacity="0" stroke="#656565" stroke-width=".3" d="M1218 420v1c-.97-1.01 2.12-15.21 1-21-1.12-5.79.51-16.17 0-23-.51-6.83.23-15.7 0-23-.23-7.3.1-15.46 0-23-.1-7.54.04-15.31 0-23-.04-7.69.02-16.27 0-24s.01-15.3 0-23c-.01-7.7 0-15.32 0-23v-46c-4.45 3.11.34 16.08-1 22-1.34 5.92.61 16.12 0 23-.61 6.88.27 15.69 0 23-.27 7.31.12 15.5 0 23s.06 15.41 0 23 .02 15.38 0 23c-.02 7.62.01 15.37 0 23-.01 7.63 0 15.4 0 23v23c0 7.54-.01 14.51 0 22Z"/><path fill="none" fill-opacity="0" stroke="#FDFDFD" stroke-width=".3" d="M1468 422c-3.7-10.05-8.64-20.2-13.08-29.92-4.43-9.73-8.78-19.17-13.15-28.85-4.37-9.68-8.82-18.99-13.46-28.53-4.65-9.55-8.24-19.55-13-29.01-4.77-9.45-8.56-20.21-13.53-29.47-4.98-9.26-7.76-20.1-13.03-28.97-5.26-8.88-7.87-20.21-13.44-28.56-5.57-8.34-4.66-23.72-15.31-26.69-10.65-2.97-30.51 2.23-42 0 50.08 110.48 99.77 221.82 152 331 48.62-110.58 99.95-220.47 149-331h-45c-17.99 38.15-34.07 77.86-52.08 115.92-18 38.07-33.74 78.43-53.92 114.08Z"/><path fill="none" fill-opacity="0" stroke="#FEFEFE" stroke-width=".3" d="M1909 236v-44h-248c4.55 7.04 2.87 5.46 7.23 13.77 4.36 8.31 10.02 19.31 14.47 27.53 4.45 8.22 11.59.77 18.3 2.7 6.71 1.93 14.16-.88 21 0s14.15-.41 21 0 13.12-.16 20 0c6.88.16 14.07-.05 21 0s14.07.02 21 0 14.11.11 21 0c6.89-.11 14.23.27 21 0 6.78-.27 14.49.61 21 0s15.08 1.36 21 0 15.42 3.21 20 0Z"/><path fill="none" fill-opacity="0" stroke="#8A8A8A" stroke-width=".3" d="M1909 236c3.09-2.17 1.02-17.98 1-22-.02-4.02 2.14-19.8-1-22v44Z"/><path fill="none" fill-opacity="0" stroke="#FEFEFE" stroke-width=".3" d="M2116 356c-22.16 3.6-45.86-.11-69 1s-47.73-.83-71 0c-3.06 4.37 1.45 14.56 0 20-1.45 5.44.64 13.08 0 19s.24 12.89 0 19c-.24 6.11.01 12.83 0 19s-.21 12.9 0 19-.58 13.11 0 19c.58 5.89-1.33 13.62 0 19 1.33 5.38-2.97 14.76 0 19h45V401c10.9.09 23.25-.12 34 0s23.78-.22 34 0c10.22.22 23.81-2.96 28.08 5.92 4.27 8.89 7.38 14.35 11.62 22.38 4.23 8.04 7.44 13.74 11.38 21.62 3.93 7.89 7.03 14.99 11.17 22.83 4.14 7.85 8.17 13.62 11.83 22.17 3.65 8.56 7.63 17.42 18.92 15.08 11.29-2.34 21.79 1.76 33 0-19.39-40.17-41.84-79.72-61-120 23.54-9.82 39.55-26.72 51.22-49.78 11.67-23.05 14.85-57.67 3.56-82-11.3-24.32-21.63-39.39-46.08-53.91-24.46-14.53-56.14-14.26-86.7-13.31-30.56.95-68.75-.71-100 0v44c29.12-.3 64.51.4 93 0 28.49-.4 57.57-3.46 79.25 12.75 21.69 16.2 27.09 43.91 19.68 67.18-7.42 23.26-28.64 38.81-51.93 40.07ZM2282 511c45.99-.69 92.01.92 138 0 6.87-.14 12.52-1.31 18.99-3.01 6.48-1.7 9.52-1.62 15.93-5.07 6.42-3.44 6.34-2.09 14-7s17.51-11.97 23.78-19.22c6.27-7.25 3.97-3.77 9.38-11.62 5.42-7.85 10.83-19.19 13.99-28.01 3.17-8.82 2.84-10.42 3.95-18.05 1.11-7.62 1.67-12.99.98-20.02-.69-7.03 1.53-14.8 0-21-1.53-6.2 3.38-16.17 0-21-23.13-.99-46.93 1.32-70 0s-47.93 2.95-70-1c-22.98-2.99-45.05-16.87-52.02-40.98-6.98-24.1-.85-48.69 20.77-65.27 21.63-16.58 50.72-14.51 79.25-13.75 28.53.76 62.93-.57 92 0v-44c-28.67-.35-64 .46-92 0s-59.81-1.84-82.92 9.08c-23.12 10.91-35.78 22.28-49.31 42.69-13.53 20.41-18.37 51.59-12.55 75.01 5.83 23.42 15.46 41.22 34.55 57.45 19.09 16.23 40.76 24.11 67.23 24.77 26.47.66 63.57-.5 91 0-1.94 34.72-26.38 66.08-65 66-38.62-.08-90.2.06-130 0 1.35 6.39-1.8 15.92 0 22s-3.45 17.08 0 22Z"/><path fill="none" fill-opacity="0" stroke="#FFF" stroke-width=".3" d="M2633 192h-44c.01 106.33-.01 212.67 0 319h44c.01-106.33-.02-212.67 0-319Z"/><path fill="none" fill-opacity="0" stroke="#FDFDFD" stroke-width=".3" d="M2729 192h-46c50.6 110.32 101.69 220.35 151 331 26.35-53.2 50.79-109.9 76.08-164.92 25.29-55.03 49.52-111 74.92-166.08-12.15-.55-26.02.74-38 0s-11.93 13.03-16.69 21.31c-4.77 8.27-7.49 17.57-12 26-4.52 8.42-7.13 17.96-11.54 26.46-4.41 8.5-8.16 17.25-11.99 26.01-3.84 8.75-7.94 17.41-11.85 26.15-3.92 8.73-7.77 17.65-11.62 26.38-3.86 8.72-8.26 17.01-12.38 25.62-4.12 8.6-7.52 17.81-11.62 26.38-4.11 8.56-7.84 16.97-11.31 25.69-19.98-35.87-36.19-76.78-54.22-114.78-18.04-37.99-34.91-77.07-52.78-115.22Z"/><path fill="none" fill-opacity="0" stroke="#FEFEFE" stroke-width=".3" d="M3275 192h-248c4.66 7.66 7.19 17 12.7 24.31 5.5 7.3 5.09 19.89 16.3 19.69 11.21-.2 25.27.09 37 0s24.03.04 36 0c11.97-.04 24.93.02 37 0 12.08-.02 23.88.01 36 0 12.12-.01 24.88 0 37 0h36v-44Z"/><path fill="none" fill-opacity="0" stroke="#000" stroke-width=".3" d="M602 274c-43.13-72.86-146.87-85.62-209.75-30.75-62.88 54.86-61.7 158.5 2.67 211.83C459.28 508.41 561.28 492.9 604 420c-39.65 43.92-110.51 45.06-152.75 4.75-42.25-40.3-42.85-110.99-1.5-152C491.1 231.74 561.54 231.32 602 274Z"/><path fill="none" fill-opacity="0" stroke="#717171" stroke-width=".3" d="M1067 266c-5.15-6.03-11.38-11.38-17-17 5.15 6.03 11.38 11.38 17 17Z"/><path fill="none" fill-opacity="0" stroke="#000" stroke-width=".3" d="M596 285c-35.17-41-98.63-41.23-136.75-4.75-38.13 36.47-38.17 100.15 0 136.5C497.43 453.09 561.43 451.22 596 411c-43.96 18.71-93.95-15.96-94-63-.05-47.04 50.08-81.48 94-63Z"/><path fill="none" fill-opacity="0" stroke="#000" stroke-width=".3" d="M612 311c-33.68-39.71-98.69-12.18-98 38 .69 50.18 66.75 75.09 98 35-40.23-4.65-38.99-67.25 0-73Z"/><path fill="none" fill-opacity="0" stroke="#000" stroke-width=".3" d="M617 323c-31.02-.62-31.07 50.7 0 50 4.12-15.97 4.12-34.05 0-50Z"/><path fill="none" fill-opacity="0" stroke="#FFF" stroke-width=".3" d="M1909 373v-44h-225v44h62c6.85 0 13.16.01 20 0s14.17.03 21 0 13.2.06 20 0c6.8-.06 14.25.12 21 0s13.38.29 20 0c6.62-.29 14.63.61 21 0 6.37-.61 14.25 1.41 20 0s15.49 3.16 20 0Z"/><path fill="none" fill-opacity="0" stroke="#8A8A8A" stroke-width=".3" d="M1909 373c3.09-2.17 1.02-17.98 1-22-.02-4.02 2.14-19.8-1-22v44Z"/><path fill="none" fill-opacity="0" stroke="#FFF" stroke-width=".3" d="M3275 329h-225v44h225c.01-14.67-.01-29.33 0-44Z"/><path fill="none" fill-opacity="0" stroke="#747474" stroke-width=".3" d="M701 360c.66-6.85.67-15.08 0-22v22Z"/><path fill="none" fill-opacity="0" stroke="#6B6B6B" stroke-width=".3" d="M169 354v-13c-.39 4.02-.4 8.91 0 13Z"/><path fill="none" fill-opacity="0" stroke="#8F8F8F" stroke-width=".3" d="M1976 357c23.27-.83 47.86 1.11 71 0s46.84 2.6 69-1c-6.82.37-14.23-.19-21 0s-13.33-.12-20 0-13.44-.14-20 0c-6.56.14-13.62-.25-20 0-6.38.25-13.99-.52-20 0s-14.8-1.14-20 0c-5.2 1.14-16.21-2.99-19 1Z"/><path fill="none" fill-opacity="0" stroke="#909090" stroke-width=".3" d="M2521 357c-2.85-4.07-14.77.24-20-1s-13.98.57-20 0-13.63.27-20 0c-6.37-.27-13.47.16-20 0-6.53-.16-13.4.14-20 0s-13.38.22-20 0c-6.62-.22-13.39.45-20 0 22.07 3.95 46.93-.32 70 1s46.87-.99 70 0Z"/><path fill="none" fill-opacity="0" stroke="#777" stroke-width=".3" d="M1148 409c-6.97-8.16-15.4-15.4-23-23 6.97 8.15 15.4 15.4 23 23Z"/><path fill="none" fill-opacity="0" stroke="#313131" stroke-width=".3" d="M1218 421v-1c-5.25-3.67-10.43-9.43-15-14 3.67 4.29 9.63 12.75 15 15Z"/><path fill="none" fill-opacity="0" stroke="#FEFEFE" stroke-width=".3" d="M1662 510c81.43 2.33 164.82.33 247 1v-43c-4.67-3.27-15.09 1.49-21 0s-14.59.7-21 0-13.32.3-20 0-14.18.13-21 0c-6.81-.13-14.18.05-21 0s-13.18 0-20 0-14.2-.05-21 0c-6.8.05-14.35-.13-21 0s-13.65-.31-20 0-15.23-.65-21 0-15.83-2.3-19.08 1.92c-3.24 4.23-4.43 8.74-7 13-2.56 4.27-5.17 9.67-7.15 13.85-1.98 4.18-6.66 8.85-6.77 13.23Z"/><path fill="none" fill-opacity="0" stroke="#8B8B8B" stroke-width=".3" d="M1909 511c3.04-3.04.97-17.66 1-22 .03-4.34 2.19-18.77-1-21v43Z"/><path fill="none" fill-opacity="0" stroke="#FEFEFE" stroke-width=".3" d="M3027 511h248v-43c-16.16-.04-32.9.06-49 0s-32.01.11-48 0c-15.99-.11-33.23.24-49 0-15.77-.24-32.74.53-48 0-15.26-.53-32.53-3.1-37.23 11.77-4.7 14.87-11.85 17.46-16.77 31.23Z"/><path fill="none" fill-opacity="0" stroke="#727272" stroke-width=".3" d="M1909 511c-82.18-.67-165.57 1.33-247-1-.09 3.83 12.96 1.58 19 2 6.04.42 16.07-.19 23 0s15.67-.08 23 0 15.49-.03 23 0 15.43 0 23 0 15.42.04 23 0 15.46.11 23 0c7.54-.11 15.59.24 23 0s15.9.53 23 0 16.59 1.18 23 0c6.42-1.18 16.77 3.23 21-1Z"/><path fill="none" fill-opacity="0" stroke="#6C6C6C" stroke-width=".3" d="M2021 510h-45c2.26 3.23 18.91.86 23 1s19.84 2.09 22-1Z"/><path fill="none" fill-opacity="0" stroke="#727272" stroke-width=".3" d="M1026 511h-44c2.17 3.09 17.98 1.02 22 1 4.02-.02 19.8 2.14 22-1Z"/><path fill="none" fill-opacity="0" stroke="#717171" stroke-width=".3" d="M2420 511c-45.99.92-92.01-.69-138 0 2.78 3.98 13.78-.14 19 1 5.22 1.14 13.99-.52 20 0s13.64-.26 20 0c6.36.26 13.49-.17 20 0s13.45-.19 20 0c6.55.19 13.49-.35 20 0s13.23-.3 19-1Z"/><path fill="none" fill-opacity="0" stroke="#727272" stroke-width=".3" d="M3275 511h-248c6.55 2.03 14.56.74 22 1 7.45.26 15.47-.12 23 0 7.53.12 15.47-.05 23 0 7.53.05 14.46-.01 22 0 7.54.01 15.43.01 23 0s15.47.05 23 0c7.53-.05 15.59.11 23 0s14.8.26 22 0c7.2-.26 16.17.57 23 0 6.83-.57 17.1 1.24 23 0 5.9-1.24 17.94 3.37 21-1Z"/><path fill="none" fill-opacity="0" stroke="#717171" stroke-width=".3" d="M603 577c4.58-3.92 9.04-8.37 13-13l-13 13Z"/><path stroke="None" d="M0 720h3555V0H0v720m701-382c.67 6.92.66 15.15 0 22 0 77.69-35.58 146.17-85 204-3.96 4.63-8.42 9.08-13 13-63.42 54.2-141.17 89.87-226 86-84.83-3.87-157.72-34.47-217.25-94.75C100.23 507.97 69.87 429.77 70 346c.13-83.77 32.9-160.83 91.75-220.25C220.6 66.34 298.11 34.4 381 33c82.89-1.4 164.86 30.16 223.75 88.25C663.65 179.34 701 255.46 701 338m349-89c5.62 5.62 11.85 10.97 17 17 42.22 49.41 93.82 90.64 136 140 4.57 4.57 9.75 10.33 15 14-.01-7.49 0-14.46 0-22v-23c0-7.6-.01-15.37 0-23 .01-7.63-.02-15.38 0-23 .02-7.62-.06-15.41 0-23s-.12-15.5 0-23-.27-15.69 0-23c.27-7.31-.61-16.12 0-23 .61-6.88-1.34-17.08 0-23 1.34-5.92-3.45-18.89 1-22 4.92-3.45 15.93 1.8 22 0s15.61 1.35 22 0v334c-38.8-38.41-76.58-78.11-115-117-7.6-7.6-16.03-14.85-23-23-30.56-35.76-67.93-66.08-99-101v226c-2.2 3.14-17.98.98-22 1-4.02.02-19.83 2.09-22-1-3.2-4.57 1.36-14.1 0-20s.62-14.53 0-21c-.62-6.47.29-14.32 0-21s.12-13.2 0-20c-.12-6.8.06-14.12 0-21-.06-6.88.03-14.13 0-21-.03-6.87.01-13.12 0-20-.01-6.88.01-14.09 0-21s0-14.11 0-21V180c23.62 22.11 45.25 46.11 68 69M912 511c-2.73 1.91-10.46-.46-14 0-3.54.46-10.4.68-14 0-3.6-.68-12.11 2.02-15 0-4.38-3.06.24-15.08-1-21s.56-16.12 0-23c-.56-6.88.25-15.69 0-23-.25-7.31.11-15.5 0-23s.05-15.41 0-23 .02-15.37 0-23c-.02-7.63 0-15.36 0-23 0-7.64-.02-15.37 0-23 .02-7.63-.05-15.41 0-23s-.12-15.5 0-23-.27-15.69 0-23c.27-7.31-.61-16.12 0-23 .61-6.88-1.34-17.08 0-23 1.34-5.92-3.45-18.89 1-22 2.73-1.91 10.46.46 14 0 3.54-.46 10.4-.68 14 0 3.6.68 12.11-2.02 15 0 4.38 3.06-.24 15.08 1 21s-.56 16.12 0 23c.56 6.88-.25 15.69 0 23 .25 7.31-.11 15.5 0 23s-.05 15.41 0 23-.02 15.37 0 23c.02 7.63 0 15.36 0 23 0 7.64.02 15.37 0 23-.02 7.63.05 15.41 0 23s.12 15.49 0 23 .27 15.69 0 23c-.27 7.31.61 16.12 0 23-.61 6.88 1.34 17.08 0 23-1.34 5.92 3.45 18.89-1 22m556-89c20.18-35.65 35.92-76.01 53.92-114.08 18.01-38.06 34.09-77.77 52.08-115.92h45c-49.05 110.53-100.38 220.42-149 331-52.23-109.18-101.92-220.52-152-331 11.49 2.23 31.35-2.97 42 0 10.65 2.97 9.74 18.35 15.31 26.69 5.57 8.35 8.18 19.68 13.44 28.56 5.27 8.87 8.05 19.71 13.03 28.97 4.97 9.26 8.76 20.02 13.53 29.47 4.76 9.46 8.35 19.46 13 29.01 4.64 9.54 9.09 18.85 13.46 28.53 4.37 9.68 8.72 19.12 13.15 28.85 4.44 9.72 9.38 19.87 13.08 29.92m441-186c-4.58 3.21-14.08-1.36-20 0s-14.49-.61-21 0-14.22-.27-21 0c-6.77.27-14.11-.11-21 0-6.89.11-14.07-.02-21 0s-14.07.05-21 0-14.12.16-21 0c-6.88-.16-13.15.41-20 0s-14.16.88-21 0-14.29 1.93-21 0c-6.71-1.93-13.85 5.52-18.3-2.7-4.45-8.22-10.11-19.22-14.47-27.53-4.36-8.31-2.68-6.73-7.23-13.77h248c3.14 2.2.98 17.98 1 22 .02 4.02 2.09 19.83-1 22m112 274c-2.16 3.09-17.91 1.14-22 1-4.09-.14-20.74 2.23-23-1-2.97-4.24 1.33-13.62 0-19-1.33-5.38.58-13.11 0-19-.58-5.89.21-12.9 0-19s-.01-12.83 0-19-.24-12.89 0-19c.24-6.11-.64-13.08 0-19s-1.45-13.56 0-19c1.45-5.44-3.06-15.63 0-20 2.79-3.99 13.8.14 19-1 5.2-1.14 13.99.52 20 0s13.62.25 20 0c6.38-.25 13.44.14 20 0 6.56-.14 13.33.12 20 0s13.23.19 20 0 14.18.37 21 0c23.29-1.26 44.51-16.81 51.93-40.07 7.41-23.27 2.01-50.98-19.68-67.18-21.68-16.21-50.76-13.15-79.25-12.75-28.49.4-63.88-.3-93 0v-44c31.25-.71 69.44.95 100 0 30.56-.95 62.24-1.22 86.7 13.31 24.45 14.52 34.78 29.59 46.08 53.91 11.29 24.33 8.11 58.95-3.56 82-11.67 23.06-27.68 39.96-51.22 49.78 19.16 40.28 41.61 79.83 61 120-11.21 1.76-21.71-2.34-33 0s-15.27-6.52-18.92-15.08c-3.66-8.55-7.69-14.32-11.83-22.17-4.14-7.84-7.24-14.94-11.17-22.83-3.94-7.88-7.15-13.58-11.38-21.62-4.24-8.03-7.35-13.49-11.62-22.38-4.27-8.88-17.86-5.7-28.08-5.92-10.22-.22-23.25.12-34 0s-23.1.09-34 0v109m360-154c6.61.45 13.38-.22 20 0 6.62.22 13.4-.14 20 0s13.47-.16 20 0c6.53.16 13.63-.27 20 0 6.37.27 13.98-.57 20 0s14.77-1.24 20 0 17.15-3.07 20 1c3.38 4.83-1.53 14.8 0 21 1.53 6.2-.69 13.97 0 21 .69 7.03.13 12.4-.98 20.02-1.11 7.63-.78 9.23-3.95 18.05-3.16 8.82-8.57 20.16-13.99 28.01-5.41 7.85-3.11 4.37-9.38 11.62-6.27 7.25-16.12 14.31-23.78 19.22-7.66 4.91-7.58 3.56-14 7-6.41 3.45-9.45 3.37-15.93 5.07-6.47 1.7-12.12 2.87-18.99 3.01-5.77.7-12.49 1.35-19 1-6.51-.35-13.45.19-20 0-6.55-.19-13.49.17-20 0s-13.64.26-20 0c-6.36-.26-13.99.52-20 0s-14.78 1.14-20 0c-5.22-1.14-16.22 2.98-19-1-3.45-4.92 1.8-15.92 0-22s1.35-15.61 0-22c39.8.06 91.38-.08 130 0 38.62.08 63.06-31.28 65-66-27.43-.5-64.53.66-91 0s-48.14-8.54-67.23-24.77c-19.09-16.23-28.72-34.03-34.55-57.45-5.82-23.42-.98-54.6 12.55-75.01 13.53-20.41 26.19-31.78 49.31-42.69 23.11-10.92 54.92-9.54 82.92-9.08 28 .46 63.33-.35 92 0v44c-29.07-.57-63.47.76-92 0s-57.62-2.83-79.25 13.75c-21.62 16.58-27.75 41.17-20.77 65.27 6.97 24.11 29.04 37.99 52.02 40.98m252-164c-.02 106.33.01 212.67 0 319h-44c-.01-106.33.01-212.67 0-319h44m96 0c17.87 38.15 34.74 77.23 52.78 115.22 18.03 38 34.24 78.91 54.22 114.78 3.47-8.72 7.2-17.13 11.31-25.69 4.1-8.57 7.5-17.78 11.62-26.38 4.12-8.61 8.52-16.9 12.38-25.62 3.85-8.73 7.7-17.65 11.62-26.38 3.91-8.74 8.01-17.4 11.85-26.15 3.83-8.76 7.58-17.51 11.99-26.01s7.02-18.04 11.54-26.46c4.51-8.43 7.23-17.73 12-26 4.76-8.28 4.71-22.05 16.69-21.31 11.98.74 25.85-.55 38 0-25.4 55.08-49.63 111.05-74.92 166.08C2884.79 413.1 2860.35 469.8 2834 523c-49.31-110.65-100.4-220.68-151-331h46m546 0v44h-36c-12.12 0-24.88-.01-37 0-12.12.01-23.92-.02-36 0-12.07.02-25.03-.04-37 0-11.97.04-24.27-.09-36 0s-25.79-.2-37 0-10.8-12.39-16.3-19.69c-5.51-7.31-8.04-16.65-12.7-24.31h248M1909 373c-4.51 3.16-14.25-1.41-20 0s-13.63-.61-20 0c-6.37.61-14.38-.29-21 0-6.62.29-13.25-.12-20 0s-14.2-.06-21 0c-6.8.06-13.17-.03-20 0s-14.16-.01-21 0-13.15 0-20 0h-62v-44h225c3.14 2.2.98 17.98 1 22 .02 4.02 2.09 19.83-1 22m1366-44c-.01 14.67.01 29.33 0 44h-225v-44h225M1909 511c-4.23 4.23-14.58-.18-21 1-6.41 1.18-15.9-.53-23 0s-15.59-.24-23 0-15.46-.11-23 0c-7.54.11-15.42-.04-23 0s-15.43 0-23 0-15.49.03-23 0-15.67.08-23 0-16.07.19-23 0-16.96.42-23 0c-6.04-.42-19.09 1.83-19-2 .11-4.38 4.79-9.05 6.77-13.23 1.98-4.18 4.59-9.58 7.15-13.85 2.57-4.26 3.76-8.77 7-13 3.25-4.22 13.31-1.27 19.08-1.92 5.77-.65 14.65.31 21 0s13.35.13 20 0 14.2.05 21 0c6.8-.05 14.18 0 21 0s13.18-.05 20 0 14.19-.13 21 0c6.82.13 14.32-.3 21 0s13.59-.7 20 0 15.09-1.49 21 0 16.33-3.27 21 0c3.19 2.23 1.03 16.66 1 21-.03 4.34 2.04 18.96-1 22m1366 0c-3.06 4.37-15.1-.24-21 1s-16.17-.57-23 0c-6.83.57-15.8-.26-23 0-7.2.26-14.59-.11-22 0s-15.47-.05-23 0c-7.53.05-15.43-.01-23 0s-15.46.01-23 0c-7.54-.01-14.47.05-22 0-7.53-.05-15.47.12-23 0-7.53-.12-15.55.26-23 0-7.44-.26-15.45 1.03-22-1 4.92-13.77 12.07-16.36 16.77-31.23 4.7-14.87 21.97-12.3 37.23-11.77 15.26.53 32.23-.24 48 0 15.77.24 33.01-.11 49 0 15.99.11 31.9-.06 48 0s32.84-.04 49 0v43Z"/><path fill="#DBDBDB" stroke="None" d="m603 577 13-13c49.42-57.83 85-126.31 85-204v-22c0-82.54-37.35-158.66-96.25-216.75C545.86 63.16 463.89 31.6 381 33c-82.89 1.4-160.4 33.34-219.25 92.75C102.9 185.17 70.13 262.23 70 346c-.13 83.77 30.23 161.97 89.75 222.25C219.28 628.53 292.17 659.13 377 663c84.83 3.87 162.58-31.8 226-86M396 44c39.82 3.85 86.7 11.96 121.69 30.31 35 18.34 60.64 35.08 88.06 63.94 27.42 28.85 44.11 55.49 60.18 91.82C681.99 266.41 691.47 316.56 690 358c-1.47 41.44-12.8 86.25-30.31 121.7-17.5 35.44-35.22 60.58-63.94 88.05s-55.52 44.16-91.83 60.17C467.62 643.94 416.37 653.63 375 652c-41.37-1.63-86.29-12.81-121.69-30.3-35.41-17.5-60.63-35.46-88.06-63.95-27.43-28.49-44.19-55.76-60.17-91.83C89.09 429.86 79.41 379.12 81 338c1.59-41.12 12.8-86.54 30.31-121.69 17.5-35.16 35.28-61.08 63.94-88.06 28.65-26.98 55.42-45.15 91.97-60.03C303.78 53.34 353.9 39.93 396 44Z"/><path stroke="None" d="M396 44c-42.1-4.07-92.22 9.34-128.78 24.22-36.55 14.88-63.32 33.05-91.97 60.03-28.66 26.98-46.44 52.9-63.94 88.06C93.8 251.46 82.59 296.88 81 338c-1.59 41.12 8.09 91.86 24.08 127.92 15.98 36.07 32.74 63.34 60.17 91.83 27.43 28.49 52.65 46.45 88.06 63.95 35.4 17.49 80.32 28.67 121.69 30.3 41.37 1.63 92.62-8.06 128.92-24.08 36.31-16.01 63.11-32.7 91.83-60.17s46.44-52.61 63.94-88.05C677.2 444.25 688.53 399.44 690 358c1.47-41.44-8.01-91.59-24.07-127.93-16.07-36.33-32.76-62.97-60.18-91.82-27.42-28.86-53.06-45.6-88.06-63.94C482.7 55.96 435.82 47.85 396 44m39 47c65.32 6.32 125.97 35.09 171.75 85.25C652.54 226.4 677.53 299.84 672 368c-5.53 68.16-35.07 124.87-85.25 171.75C536.57 586.63 462.34 609.99 394 605c-68.34-4.99-124.51-36.14-171.3-85.7-46.79-49.55-70.45-123.05-64.77-190.37 5.67-67.33 33.09-126.98 84.32-172.68C293.48 110.55 364.85 84.21 435 91Z"/><path fill="#DBDBDB" stroke="None" d="M435 91c-70.15-6.79-141.52 19.55-192.75 65.25-51.23 45.7-78.65 105.35-84.32 172.68-5.68 67.32 17.98 140.82 64.77 190.37 46.79 49.56 102.96 80.71 171.3 85.7 68.34 4.99 142.57-18.37 192.75-65.25C636.93 492.87 666.47 436.16 672 368c5.53-68.16-19.46-141.6-65.25-191.75C560.97 126.09 500.32 97.32 435 91m-10 12c131.72 0 238.19 120.57 236 250-2.19 129.43-114.41 241.26-245 241-130.59-.26-247-107.2-247-240-.4-4.09-.39-8.98 0-13 0-122.89 109.63-238 234-238 6.92-.67 15.15-.66 22 0Z"/><path fill="#5A5A5A" stroke="None" d="M403 103h22c-6.85-.66-15.08-.67-22 0Z"/><path stroke="None" d="M169 341v13c0 132.8 116.41 239.74 247 240 130.59.26 242.81-111.57 245-241 2.19-129.43-104.28-250-236-250h-22c-124.37 0-234 115.11-234 238m296-192c18.8 1.82 40.91 7.6 58.22 14.78 17.32 7.17 31.9 15.15 46.53 26.47 14.62 11.33 24.51 22.06 36.5 36.5 11.98 14.44 17.31 29.19 26.53 46.47 9.21 17.29 5.85 38.29 16.99 56.01 11.14 17.72-2.09 39.11-6.55 56.99-4.46 17.88-9.32 38.37-18.53 54.47-9.2 16.11-17.69 28.8-30.44 42.56-12.76 13.75-24.35 22.91-39.95 33.05-15.6 10.15-31.79 17.04-50.32 22.68-18.54 5.63-45.47 9.35-65.98 8.02-20.51-1.33-42.67-5.25-60.68-12.32-18.01-7.08-32.56-14.5-47.4-25.6-14.85-11.09-25.76-20.97-37.67-35.33-11.92-14.36-19.29-28.39-27.22-45.77-7.94-17.39-13.46-37.03-16.01-57-2.54-19.98-.52-49.01 3.97-67.99 4.5-18.98 11.37-36.04 20.76-52.24 9.4-16.19 17.6-28.8 31-42 13.4-13.2 24.67-22.7 40.95-32.05 16.27-9.35 32.18-16.89 51.37-21.63 19.19-4.73 46.63-8.13 67.93-6.07Z"/><path fill="#DBDBDB" stroke="None" d="M465 149c-21.3-2.06-48.74 1.34-67.93 6.07-19.19 4.74-35.1 12.28-51.37 21.63-16.28 9.35-27.55 18.85-40.95 32.05-13.4 13.2-21.6 25.81-31 42-9.39 16.2-16.26 33.26-20.76 52.24-4.49 18.98-6.51 48.01-3.97 67.99 2.55 19.97 8.07 39.61 16.01 57 7.93 17.38 15.3 31.41 27.22 45.77 11.91 14.36 22.82 24.24 37.67 35.33 14.84 11.1 29.39 18.52 47.4 25.6 18.01 7.07 40.17 10.99 60.68 12.32 20.51 1.33 47.44-2.39 65.98-8.02 18.53-5.64 34.72-12.53 50.32-22.68 15.6-10.14 27.19-19.3 39.95-33.05 12.75-13.76 21.24-26.45 30.44-42.56 9.21-16.1 14.07-36.59 18.53-54.47 4.46-17.88 17.69-39.27 6.55-56.99s-7.78-38.72-16.99-56.01c-9.22-17.28-14.55-32.03-26.53-46.47-11.99-14.44-21.88-25.17-36.5-36.5-14.63-11.32-29.21-19.3-46.53-26.47C505.91 156.6 483.8 150.82 465 149m-9 12c84.26 0 162.72 69.97 176 152-16.6-72.66-90.8-123.75-165-115s-133.5 73.71-134 149 57.8 141.49 132.07 150.93C539.34 507.36 616.3 457.2 631 383c-5.18 37.03-23.28 72.2-52.25 99.75-28.97 27.55-62.84 44.49-102.82 51.18-39.99 6.69-91.65-3.64-125.63-25.23-33.97-21.6-54.82-45.08-73.07-80.93-18.25-35.85-22.25-92.28-10.3-130.84 11.94-38.57 29.33-66.81 60.77-93.23 31.43-26.42 71.04-41.75 112.3-42.7 5.04-.49 11.03-.48 16 0m146 113c-40.46-42.68-110.9-42.26-152.25-1.25-41.35 41.01-40.75 111.7 1.5 152 42.24 40.31 113.1 39.17 152.75-4.75-42.72 72.9-144.72 88.41-209.08 35.08-64.37-53.33-65.55-156.97-2.67-211.83C455.13 188.38 558.87 201.14 602 274m-6 11c-43.92-18.48-94.05 15.96-94 63 .05 47.04 50.04 81.71 94 63-34.57 40.22-98.57 42.09-136.75 5.75-38.17-36.35-38.13-100.03 0-136.5C497.37 243.77 560.83 244 596 285m16 26c-38.99 5.75-40.23 68.35 0 73-31.25 40.09-97.31 15.18-98-35-.69-50.18 64.32-77.71 98-38m5 12c4.12 15.95 4.12 34.03 0 50-31.07.7-31.02-50.62 0-50Z"/><path fill="#666" stroke="None" d="M440 161h16c-4.97-.48-10.96-.49-16 0Z"/><path stroke="None" d="M456 161h-16c-41.26.95-80.87 16.28-112.3 42.7-31.44 26.42-48.83 54.66-60.77 93.23-11.95 38.56-7.95 94.99 10.3 130.84 18.25 35.85 39.1 59.33 73.07 80.93 33.98 21.59 85.64 31.92 125.63 25.23 39.98-6.69 73.85-23.63 102.82-51.18S625.82 420.03 631 383c-14.7 74.2-91.66 124.36-165.93 114.93C390.8 488.49 332.5 422.29 333 347s59.8-140.25 134-149 148.4 42.34 165 115c-13.28-82.03-91.74-152-176-152Z"/><path fill="#FDFDFD" stroke="None" d="M982 511h44V285c31.07 34.92 68.44 65.24 99 101 7.6 7.6 16.03 14.84 23 23 38.42 38.89 76.2 78.59 115 117V192c-6.39 1.35-15.93-1.8-22 0s-17.08-3.45-22 0v46c0 7.68-.01 15.3 0 23 .01 7.7-.02 15.27 0 23s-.04 16.31 0 24c.04 7.69-.1 15.46 0 23 .1 7.54-.23 15.7 0 23 .23 7.3-.51 16.17 0 23 .51 6.83-1.12 17.21 0 23 1.12 5.79-1.97 19.99-1 21-5.37-2.25-11.33-10.71-15-15-42.18-49.36-93.78-90.59-136-140-5.62-5.62-11.85-10.97-17-17-22.75-22.89-44.38-46.89-68-69v145c0 6.89-.01 14.09 0 21s-.01 14.12 0 21c.01 6.88-.03 13.13 0 20 .03 6.87-.06 14.12 0 21 .06 6.88-.12 14.2 0 21 .12 6.8-.29 13.32 0 20s-.62 14.53 0 21c.62 6.47-1.36 15.1 0 21s-3.2 15.43 0 20Z"/><path fill="#777" stroke="None" d="M869 511V192c-4.45 3.11.34 16.08-1 22-1.34 5.92.61 16.12 0 23-.61 6.88.27 15.69 0 23-.27 7.31.12 15.5 0 23s.05 15.41 0 23 .02 15.37 0 23c-.02 7.63 0 15.36 0 23 0 7.64-.02 15.37 0 23 .02 7.63-.05 15.41 0 23s-.11 15.5 0 23-.25 15.69 0 23c.25 7.31-.56 16.12 0 23 .56 6.88-1.24 17.08 0 23 1.24 5.92-3.38 17.94 1 21Z"/><path fill="#FFF" stroke="None" d="M869 511c2.89 2.02 11.4-.68 15 0 3.6.68 10.46.46 14 0 3.54-.46 11.27 1.91 14 0V192c-2.89-2.02-11.4.68-15 0-3.6-.68-10.46-.46-14 0-3.54.46-11.27-1.91-14 0v319Z"/><path fill="#8B8B8B" stroke="None" d="M912 511c4.45-3.11-.34-16.08 1-22 1.34-5.92-.61-16.12 0-23 .61-6.88-.27-15.69 0-23 .27-7.31-.12-15.49 0-23s-.05-15.41 0-23-.02-15.37 0-23c.02-7.63 0-15.36 0-23 0-7.64.02-15.37 0-23-.02-7.63.05-15.41 0-23s.11-15.5 0-23 .25-15.69 0-23c-.25-7.31.56-16.12 0-23-.56-6.88 1.24-17.08 0-23-1.24-5.92 3.38-17.94-1-21v319Z"/><path fill="#656565" stroke="None" d="M1218 420v1c-.97-1.01 2.12-15.21 1-21-1.12-5.79.51-16.17 0-23-.51-6.83.23-15.7 0-23-.23-7.3.1-15.46 0-23-.1-7.54.04-15.31 0-23-.04-7.69.02-16.27 0-24s.01-15.3 0-23c-.01-7.7 0-15.32 0-23v-46c-4.45 3.11.34 16.08-1 22-1.34 5.92.61 16.12 0 23-.61 6.88.27 15.69 0 23-.27 7.31.12 15.5 0 23s.06 15.41 0 23 .02 15.38 0 23c-.02 7.62.01 15.37 0 23-.01 7.63 0 15.4 0 23v23c0 7.54-.01 14.51 0 22Z"/><path fill="#FDFDFD" stroke="None" d="M1468 422c-3.7-10.05-8.64-20.2-13.08-29.92-4.43-9.73-8.78-19.17-13.15-28.85-4.37-9.68-8.82-18.99-13.46-28.53-4.65-9.55-8.24-19.55-13-29.01-4.77-9.45-8.56-20.21-13.53-29.47-4.98-9.26-7.76-20.1-13.03-28.97-5.26-8.88-7.87-20.21-13.44-28.56-5.57-8.34-4.66-23.72-15.31-26.69-10.65-2.97-30.51 2.23-42 0 50.08 110.48 99.77 221.82 152 331 48.62-110.58 99.95-220.47 149-331h-45c-17.99 38.15-34.07 77.86-52.08 115.92-18 38.07-33.74 78.43-53.92 114.08Z"/><path fill="#FEFEFE" stroke="None" d="M1909 236v-44h-248c4.55 7.04 2.87 5.46 7.23 13.77 4.36 8.31 10.02 19.31 14.47 27.53 4.45 8.22 11.59.77 18.3 2.7 6.71 1.93 14.16-.88 21 0s14.15-.41 21 0 13.12-.16 20 0c6.88.16 14.07-.05 21 0s14.07.02 21 0 14.11.11 21 0c6.89-.11 14.23.27 21 0 6.78-.27 14.49.61 21 0s15.08 1.36 21 0 15.42 3.21 20 0Z"/><path fill="#8A8A8A" stroke="None" d="M1909 236c3.09-2.17 1.02-17.98 1-22-.02-4.02 2.14-19.8-1-22v44Z"/><path fill="#FEFEFE" stroke="None" d="M2116 356c-22.16 3.6-45.86-.11-69 1s-47.73-.83-71 0c-3.06 4.37 1.45 14.56 0 20-1.45 5.44.64 13.08 0 19s.24 12.89 0 19c-.24 6.11.01 12.83 0 19s-.21 12.9 0 19-.58 13.11 0 19c.58 5.89-1.33 13.62 0 19 1.33 5.38-2.97 14.76 0 19h45V401c10.9.09 23.25-.12 34 0s23.78-.22 34 0c10.22.22 23.81-2.96 28.08 5.92 4.27 8.89 7.38 14.35 11.62 22.38 4.23 8.04 7.44 13.74 11.38 21.62 3.93 7.89 7.03 14.99 11.17 22.83 4.14 7.85 8.17 13.62 11.83 22.17 3.65 8.56 7.63 17.42 18.92 15.08 11.29-2.34 21.79 1.76 33 0-19.39-40.17-41.84-79.72-61-120 23.54-9.82 39.55-26.72 51.22-49.78 11.67-23.05 14.85-57.67 3.56-82-11.3-24.32-21.63-39.39-46.08-53.91-24.46-14.53-56.14-14.26-86.7-13.31-30.56.95-68.75-.71-100 0v44c29.12-.3 64.51.4 93 0 28.49-.4 57.57-3.46 79.25 12.75 21.69 16.2 27.09 43.91 19.68 67.18-7.42 23.26-28.64 38.81-51.93 40.07ZM2282 511c45.99-.69 92.01.92 138 0 6.87-.14 12.52-1.31 18.99-3.01 6.48-1.7 9.52-1.62 15.93-5.07 6.42-3.44 6.34-2.09 14-7s17.51-11.97 23.78-19.22c6.27-7.25 3.97-3.77 9.38-11.62 5.42-7.85 10.83-19.19 13.99-28.01 3.17-8.82 2.84-10.42 3.95-18.05 1.11-7.62 1.67-12.99.98-20.02-.69-7.03 1.53-14.8 0-21-1.53-6.2 3.38-16.17 0-21-23.13-.99-46.93 1.32-70 0s-47.93 2.95-70-1c-22.98-2.99-45.05-16.87-52.02-40.98-6.98-24.1-.85-48.69 20.77-65.27 21.63-16.58 50.72-14.51 79.25-13.75 28.53.76 62.93-.57 92 0v-44c-28.67-.35-64 .46-92 0s-59.81-1.84-82.92 9.08c-23.12 10.91-35.78 22.28-49.31 42.69-13.53 20.41-18.37 51.59-12.55 75.01 5.83 23.42 15.46 41.22 34.55 57.45 19.09 16.23 40.76 24.11 67.23 24.77 26.47.66 63.57-.5 91 0-1.94 34.72-26.38 66.08-65 66-38.62-.08-90.2.06-130 0 1.35 6.39-1.8 15.92 0 22s-3.45 17.08 0 22Z"/><path fill="#FFF" stroke="None" d="M2633 192h-44c.01 106.33-.01 212.67 0 319h44c.01-106.33-.02-212.67 0-319Z"/><path fill="#FDFDFD" stroke="None" d="M2729 192h-46c50.6 110.32 101.69 220.35 151 331 26.35-53.2 50.79-109.9 76.08-164.92 25.29-55.03 49.52-111 74.92-166.08-12.15-.55-26.02.74-38 0s-11.93 13.03-16.69 21.31c-4.77 8.27-7.49 17.57-12 26-4.52 8.42-7.13 17.96-11.54 26.46-4.41 8.5-8.16 17.25-11.99 26.01-3.84 8.75-7.94 17.41-11.85 26.15-3.92 8.73-7.77 17.65-11.62 26.38-3.86 8.72-8.26 17.01-12.38 25.62-4.12 8.6-7.52 17.81-11.62 26.38-4.11 8.56-7.84 16.97-11.31 25.69-19.98-35.87-36.19-76.78-54.22-114.78-18.04-37.99-34.91-77.07-52.78-115.22Z"/><path fill="#FEFEFE" stroke="None" d="M3275 192h-248c4.66 7.66 7.19 17 12.7 24.31 5.5 7.3 5.09 19.89 16.3 19.69 11.21-.2 25.27.09 37 0s24.03.04 36 0c11.97-.04 24.93.02 37 0 12.08-.02 23.88.01 36 0 12.12-.01 24.88 0 37 0h36v-44Z"/><path stroke="None" d="M602 274c-43.13-72.86-146.87-85.62-209.75-30.75-62.88 54.86-61.7 158.5 2.67 211.83C459.28 508.41 561.28 492.9 604 420c-39.65 43.92-110.51 45.06-152.75 4.75-42.25-40.3-42.85-110.99-1.5-152C491.1 231.74 561.54 231.32 602 274Z"/><path fill="#717171" stroke="None" d="M1067 266c-5.15-6.03-11.38-11.38-17-17 5.15 6.03 11.38 11.38 17 17Z"/><path stroke="None" d="M596 285c-35.17-41-98.63-41.23-136.75-4.75-38.13 36.47-38.17 100.15 0 136.5C497.43 453.09 561.43 451.22 596 411c-43.96 18.71-93.95-15.96-94-63-.05-47.04 50.08-81.48 94-63Z"/><path stroke="None" d="M612 311c-33.68-39.71-98.69-12.18-98 38 .69 50.18 66.75 75.09 98 35-40.23-4.65-38.99-67.25 0-73Z"/><path stroke="None" d="M617 323c-31.02-.62-31.07 50.7 0 50 4.12-15.97 4.12-34.05 0-50Z"/><path fill="#FFF" stroke="None" d="M1909 373v-44h-225v44h62c6.85 0 13.16.01 20 0s14.17.03 21 0 13.2.06 20 0c6.8-.06 14.25.12 21 0s13.38.29 20 0c6.62-.29 14.63.61 21 0 6.37-.61 14.25 1.41 20 0s15.49 3.16 20 0Z"/><path fill="#8A8A8A" stroke="None" d="M1909 373c3.09-2.17 1.02-17.98 1-22-.02-4.02 2.14-19.8-1-22v44Z"/><path fill="#FFF" stroke="None" d="M3275 329h-225v44h225c.01-14.67-.01-29.33 0-44Z"/><path fill="#747474" stroke="None" d="M701 360c.66-6.85.67-15.08 0-22v22Z"/><path fill="#6B6B6B" stroke="None" d="M169 354v-13c-.39 4.02-.4 8.91 0 13Z"/><path fill="#8F8F8F" stroke="None" d="M1976 357c23.27-.83 47.86 1.11 71 0s46.84 2.6 69-1c-6.82.37-14.23-.19-21 0s-13.33-.12-20 0-13.44-.14-20 0c-6.56.14-13.62-.25-20 0-6.38.25-13.99-.52-20 0s-14.8-1.14-20 0c-5.2 1.14-16.21-2.99-19 1Z"/><path fill="#909090" stroke="None" d="M2521 357c-2.85-4.07-14.77.24-20-1s-13.98.57-20 0-13.63.27-20 0c-6.37-.27-13.47.16-20 0-6.53-.16-13.4.14-20 0s-13.38.22-20 0c-6.62-.22-13.39.45-20 0 22.07 3.95 46.93-.32 70 1s46.87-.99 70 0Z"/><path fill="#777" stroke="None" d="M1148 409c-6.97-8.16-15.4-15.4-23-23 6.97 8.15 15.4 15.4 23 23Z"/><path fill="#313131" stroke="None" d="M1218 421v-1c-5.25-3.67-10.43-9.43-15-14 3.67 4.29 9.63 12.75 15 15Z"/><path fill="#FEFEFE" stroke="None" d="M1662 510c81.43 2.33 164.82.33 247 1v-43c-4.67-3.27-15.09 1.49-21 0s-14.59.7-21 0-13.32.3-20 0-14.18.13-21 0c-6.81-.13-14.18.05-21 0s-13.18 0-20 0-14.2-.05-21 0c-6.8.05-14.35-.13-21 0s-13.65-.31-20 0-15.23-.65-21 0-15.83-2.3-19.08 1.92c-3.24 4.23-4.43 8.74-7 13-2.56 4.27-5.17 9.67-7.15 13.85-1.98 4.18-6.66 8.85-6.77 13.23Z"/><path fill="#8B8B8B" stroke="None" d="M1909 511c3.04-3.04.97-17.66 1-22 .03-4.34 2.19-18.77-1-21v43Z"/><path fill="#FEFEFE" stroke="None" d="M3027 511h248v-43c-16.16-.04-32.9.06-49 0s-32.01.11-48 0c-15.99-.11-33.23.24-49 0-15.77-.24-32.74.53-48 0-15.26-.53-32.53-3.1-37.23 11.77-4.7 14.87-11.85 17.46-16.77 31.23Z"/><path fill="#727272" stroke="None" d="M1909 511c-82.18-.67-165.57 1.33-247-1-.09 3.83 12.96 1.58 19 2 6.04.42 16.07-.19 23 0s15.67-.08 23 0 15.49-.03 23 0 15.43 0 23 0 15.42.04 23 0 15.46.11 23 0c7.54-.11 15.59.24 23 0s15.9.53 23 0 16.59 1.18 23 0c6.42-1.18 16.77 3.23 21-1Z"/><path fill="#6C6C6C" stroke="None" d="M2021 510h-45c2.26 3.23 18.91.86 23 1s19.84 2.09 22-1Z"/><path fill="#727272" stroke="None" d="M1026 511h-44c2.17 3.09 17.98 1.02 22 1 4.02-.02 19.8 2.14 22-1Z"/><path fill="#717171" stroke="None" d="M2420 511c-45.99.92-92.01-.69-138 0 2.78 3.98 13.78-.14 19 1 5.22 1.14 13.99-.52 20 0s13.64-.26 20 0c6.36.26 13.49-.17 20 0s13.45-.19 20 0c6.55.19 13.49-.35 20 0s13.23-.3 19-1Z"/><path fill="#727272" stroke="None" d="M3275 511h-248c6.55 2.03 14.56.74 22 1 7.45.26 15.47-.12 23 0 7.53.12 15.47-.05 23 0 7.53.05 14.46-.01 22 0 7.54.01 15.43.01 23 0s15.47.05 23 0c7.53-.05 15.59.11 23 0s14.8.26 22 0c7.2-.26 16.17.57 23 0 6.83-.57 17.1 1.24 23 0 5.9-1.24 17.94 3.37 21-1Z"/><path fill="#717171" stroke="None" d="M603 577c4.58-3.92 9.04-8.37 13-13l-13 13Z"/></svg>