<svg xmlns="http://www.w3.org/2000/svg" viewBox="0 0 139.52 139.43">
  <defs>
    <style>
      .cls-1 {
        stroke: #fff;
        stroke-miterlimit: 10;
        stroke-width: 3px;
        fill: #fff; /* relleno blanco */
      }
    </style>
  </defs>

  <!-- Fondo negro -->
  <rect width="100%" height="100%" fill="#000"/>

  <path d="M66.21 1.56c55.18-2.29 90.72 57.76 61.08 104.74S29.02 147.06 7.22 97.19C-11.79 53.71 18.83 3.53 66.21 1.56Zm51.13 113.49C156.99 72.93 127.06 3.89 69.41 4.11c-52.02.2-83.18 58.02-54.64 101.76 23 35.25 73.65 39.9 102.57 9.18Z" class="cls-1"/>
  <path d="M116.66 31.92c27.38 29.35 15.4 77.35-22.31 90.5-41.8 14.58-82.94-23.08-72.4-65.98C32.46 13.7 86.52-.4 116.66 31.92ZM40.15 109.2c29.3 26.68 76.49 12.89 87.01-25.1 10.65-38.44-23.25-74.49-62.23-66.27-42.14 8.89-56.69 62.31-24.77 91.37Z" class="cls-1"/>
  <path d="M52.82 39.2c22.57-22.25 61.11-13.05 71.1 16.92 1.01 3.04 1.16 6.26 1.99 9.05.2.69 1.08 1.53 1.4 2.43.71 1.99.61 4.62-.33 6.51-.8 1.6-.96 1.18-1.41 3.19-5.36 24-26.06 39.88-51.03 34.95-33.69-6.64-46.25-48.88-21.72-73.04Zm70.08 23.58c-3.13-19.75-21.47-34.28-41.43-33.47-30.68 1.26-49.09 35.15-33.18 61.62 15.92 26.49 54.88 26.06 70.06-.88 2.02-3.58 3.69-7.7 4.33-11.75l-1.19 3.5c-7.87 20.44-33.4 27.56-50.72 13.92-16.46-12.97-16.48-38.16-.11-51.22 17.58-14.03 43.71-6.32 51.15 14.74l1.09 3.53Zm-6.26-8.5c-7.34-12.14-22.47-17.41-35.89-12.57-17.91 6.47-25.33 27.81-15.4 44.16 10.32 16.99 34.4 19.25 47.86 4.63 1.09-1.19 2.28-2.62 2.97-4.07-11.44 11.49-31.21 7.85-37.55-7.17-7.64-18.08 9.13-36.65 27.9-31.09 4.16 1.23 6.31 3.02 9.47 5.75.2.17.29.45.63.37Zm-1.32 2.54c-13.8-15.85-39.77-3.31-35.59 17.58 3.27 16.33 24.09 21.92 35.2 9.63-3.98 1.26-7.72 1.36-11.56-.37-8-3.61-11.03-13.49-6.43-21.02 3.8-6.22 11.64-8.6 18.38-5.82Zm2.98 21.42c-7.56-1.52-8.72-11.94-1.59-15.07.34-.15 2-.55 2-.72-6.65-7.71-19.47-4.36-21.24 5.75-1.78 10.2 9.2 17.89 18.18 12.6.42-.25 3.06-2.08 2.65-2.55Zm.51-13.11c-2.36.29-4.43 2.96-4.43 5.29 0 2.72 2.29 5.48 5.06 5.38.7-.45.89-6.11.83-7.13-.03-.52-.35-2.94-.54-3.26-.25-.43-.48-.33-.93-.28Z" class="cls-1"/>
</svg>
