<?xml version="1.0" encoding="UTF-8"?>
<svg id="Calque_1" data-name="Calque 1" xmlns="http://www.w3.org/2000/svg" viewBox="0 0 139.51 139.43">
  <defs>
    <style>
      .cls-1 {
        fill: #fff;
      }
    </style>
  </defs>
  <path class="cls-1" d="M129.61,34.35C116.03,11.49,91.98-1.31,65.31.11,42.48,1.32,22.45,13.39,10.36,33.24-1.76,53.12-3.34,77.52,6.12,98.51c10.75,23.85,32.84,39.09,59.1,40.77,1.59.1,3.17.15,4.74.15,24.32,0,46.13-12.11,58.98-33.01,13.85-22.52,14.1-49.47.67-72.08ZM16.39,105.66C3.05,85.72,1.73,61.15,12.85,39.95,23.93,18.81,44.79,5.98,68.64,5.62c.35,0,.69,0,1.04,0,25.59,0,47.92,14.46,58.43,37.93,10.7,23.88,6.33,50.68-11.4,69.95-13.27,14.42-32.2,21.82-51.96,20.29-19.81-1.53-37.44-11.78-48.36-28.11Z"/>
  <path class="cls-1" d="M95.41,123.55c18.14-6.56,31.63-21.76,36.07-40.66,4.45-18.9-.87-38.54-14.22-52.53-14.72-15.43-35.82-21.29-56.42-15.67-20.56,5.6-35.72,21.29-40.55,41.96-4.86,20.8,1.76,41.69,17.73,55.88,10.74,9.55,24.01,14.53,37.66,14.53,6.57,0,13.22-1.15,19.73-3.51ZM41.55,108.41c-14.71-13.09-20.52-32.37-15.53-51.58,4.98-19.19,19.41-33.2,38.59-37.48,3.8-.85,7.62-1.26,11.39-1.26,13.87,0,27.19,5.59,37.1,15.91,8.08,8.41,12.92,18.96,14.14,30.08,0,0,0,0,0,0-.37-1.19-.61-2.49-.87-3.86-.32-1.7-.64-3.46-1.25-5.21-5.01-14.49-17.04-25.2-32.16-28.65-15.19-3.46-30.75,1.01-41.61,11.97-11.82,11.92-15.86,28.68-10.81,44.83,5.02,16.06,17.79,27.46,34.15,30.49,2.95.55,5.85.81,8.69.81,21.01,0,38.58-14.48,43.56-36.99-.28,1.87-.65,3.73-1.14,5.59-4.61,17.43-17.73,30.95-35.08,36.18-17.33,5.21-35.71,1.17-49.19-10.82ZM63.91,60.54c2.77-8.14,8.96-14.54,16.99-17.54,3.29-1.23,6.68-1.82,10.04-1.82,6.08,0,12.01,1.93,16.89,5.49-.38-.13-.77-.25-1.18-.36-9.32-2.64-19.04.22-25.37,7.47-6.29,7.2-7.81,17.16-3.97,25.98,3.23,7.42,9.96,12.72,18,14.18,4.27.78,8.58.42,12.54-.94-5.53,4.04-12.35,5.95-19.44,5.33-9.04-.79-16.93-5.6-21.66-13.2-4.61-7.4-5.65-16.36-2.85-24.59ZM118.45,73.6c-.44-.15-.87-.41-1.26-.77-.81-.77-1.33-1.89-1.34-2.94-.02-1.48,1.24-3.21,2.58-3.71.13.71.27,1.69.29,2.01.06.88-.04,3.88-.27,5.41ZM91.17,52.95c2.49-1.26,5.59-2.12,8.89-2.12s6.61.82,9.79,2.87c-5.73-.15-11.26,2.72-14.33,7.86-2.38,3.99-2.93,8.82-1.5,13.25,1.41,4.4,4.64,7.99,8.86,9.83,2.25.98,4.52,1.43,6.92,1.37-4.35,2.71-9.71,3.55-14.92,2.18-7.07-1.86-12.18-7.18-13.67-14.22-2.26-10.66,3.96-17.99,9.97-21.03ZM103.46,78.7c-3.5-2.37-5.25-6.42-4.57-10.58.67-4.11,3.48-7.27,7.51-8.43,1.02-.29,2.04-.44,3.06-.44,2.29,0,4.5.73,6.33,2.09-3.72,1.77-5.8,5.54-5.31,9.65.4,3.34,2.39,6.07,5.28,7.42-.33.25-.64.47-.8.57-3.61,2.18-8.01,2.07-11.5-.29ZM99.93,36.89c-10.78-2.96-21.91-.61-30.54,6.44-8.11,6.62-12.67,16.46-12.52,27.01.15,10.52,4.98,20.19,13.24,26.55,8.69,6.68,19.71,8.78,30.26,5.75,3.48-1,6.71-2.5,9.61-4.43-6.86,6.55-15.98,10.39-25.93,10.64-14.14.36-26.94-6.55-34.29-18.48-7.31-11.86-7.8-26.34-1.3-38.74,6.51-12.4,18.69-20.24,32.58-20.97.67-.04,1.33-.05,1.99-.05,10.15,0,19.71,4.07,26.8,10.73-2.98-1.96-6.31-3.47-9.91-4.45Z"/>
</svg>