<svg width="376" height="82" viewBox="0 0 376 82" fill="none" xmlns="http://www.w3.org/2000/svg">
<path d="M76.0746 19.9907C68.0059 6.59355 53.8323 -0.851 38.1516 0.0776659C24.7392 0.869315 13.0015 8.03983 5.95273 19.7471C-1.09599 31.4848 -1.93331 45.8259 3.69958 58.1421C10.1089 72.1178 23.1407 81.0086 38.5778 81.9068C39.4304 81.9525 40.2677 81.9829 41.105 81.9829C55.5069 81.9829 68.3865 74.782 75.9224 62.3744C83.9911 49.0838 84.0368 33.2508 76.0594 20.0059L76.0746 19.9907ZM68.7671 66.5458C61.018 75.0712 49.9045 79.4862 38.2886 78.6489C26.6422 77.8115 16.2442 71.859 9.75874 62.2983C1.84224 50.6214 0.989699 36.1891 7.44469 23.6901C13.8845 11.2217 26.1093 3.60964 40.1307 3.30516C40.4199 3.30516 40.694 3.30516 40.9832 3.30516C55.9332 3.30516 68.9954 11.7088 75.2221 25.3952C81.5857 39.3861 79.1194 55.1582 68.7671 66.561V66.5458Z" fill="white"/>
<path d="M68.7975 17.6766C60.0894 8.66402 47.6666 5.28428 35.5787 8.66402C23.506 12.0285 14.6609 21.3 11.8901 33.4792C9.10409 45.7193 13.0776 57.9746 22.5012 66.2717C28.804 71.7981 36.5378 74.6754 44.5 74.6754C48.4278 74.6754 52.4012 73.9751 56.2834 72.544C66.925 68.6315 74.7958 59.6341 77.3534 48.5053C79.8958 37.3765 76.714 25.8519 68.8127 17.6766H68.7975ZM74.7806 37.4679C74.5522 36.7676 74.4152 36.0064 74.2629 35.1995C74.065 34.1947 73.8671 33.1747 73.517 32.1395C70.5178 23.6445 63.4082 17.3874 54.5021 15.4083C45.5656 13.4291 36.4312 16.1086 30.0828 22.594C23.1711 29.6427 20.857 39.5079 23.8866 48.9925C26.901 58.4161 34.4369 65.069 44.0737 66.7894C45.7483 67.0938 47.4078 67.2308 49.0215 67.2308C61.4443 67.2308 71.7966 58.6445 74.6588 45.3387C74.4913 46.4348 74.2934 47.531 74.0041 48.6271C71.3552 58.8881 63.6975 66.8807 53.5126 70.0168C43.3429 73.1378 32.5186 70.8237 24.5565 63.8207C15.8636 56.1782 12.3773 44.8668 15.2394 33.5553C18.1015 22.2591 26.5356 13.962 37.8014 11.3891C48.2146 8.99895 58.9019 12.1503 66.3617 19.8232C71.142 24.7406 74.0194 30.9215 74.7806 37.4527V37.4679ZM69.6501 43.1008C69.3912 43.0094 69.1324 42.8724 68.9041 42.6593C68.4169 42.2178 68.1124 41.5479 68.0972 40.939C68.082 40.0712 68.8127 39.0512 69.6044 38.7467C69.6805 39.173 69.7719 39.7363 69.7871 39.9342C69.8327 40.4518 69.7871 42.2178 69.6501 43.116V43.1008ZM55.2938 43.9076C56.1463 46.4957 58.0493 48.5814 60.5309 49.6623C61.8554 50.2256 63.1951 50.4996 64.6109 50.4388C62.0685 52.0525 58.9171 52.5549 55.8419 51.7785C51.6857 50.7128 48.6561 47.6071 47.7579 43.4661C46.3877 37.2091 50.0263 32.8702 53.543 31.0738C55.0198 30.3126 56.8619 29.795 58.8258 29.795C60.7897 29.795 62.6622 30.2669 64.5196 31.4544C61.1398 31.4087 57.9123 33.0986 56.1311 36.1282C54.7457 38.4879 54.4413 41.3196 55.2938 43.9229V43.9076ZM45.4895 46.8611C47.4077 51.2152 51.3812 54.3057 56.1159 55.143C58.6279 55.5845 61.1703 55.3561 63.4843 54.5492C60.2416 56.9394 56.2377 58.0964 52.0815 57.7463C46.7683 57.3048 42.1098 54.5188 39.2933 50.0582C36.553 45.7193 35.9136 40.467 37.5274 35.6105C39.1259 30.815 42.7492 27.0394 47.4534 25.243C49.4173 24.497 51.4421 24.1316 53.4517 24.1316C56.9837 24.1316 60.4395 25.243 63.3016 27.2982C63.0733 27.2221 62.8449 27.1612 62.6013 27.0851C57.1207 25.5627 51.4117 27.283 47.7122 31.561C44.0432 35.8237 43.1755 41.6697 45.4743 46.8459L45.4895 46.8611ZM58.6279 21.5892C52.2794 19.8841 45.7483 21.3152 40.694 25.4866C35.9441 29.3991 33.3103 35.2147 33.4321 41.4109C33.5539 47.5919 36.4312 53.2704 41.3029 56.9699C46.4334 60.8672 52.9189 62.0547 59.115 60.243C61.1551 59.6493 63.0428 58.7511 64.7479 57.6093C60.744 61.4914 55.4004 63.775 49.5391 63.9577C41.242 64.2013 33.6757 60.1974 29.3216 53.2095C24.9828 46.2674 24.6478 37.7571 28.4234 30.4496C32.1989 23.1268 39.339 18.4835 47.4991 18.0116C47.9406 17.9811 48.3669 17.9659 48.8084 17.9659C54.7305 17.9659 60.3025 20.3256 64.4587 24.1773C62.6927 23.0355 60.7288 22.1677 58.6126 21.5892H58.6279ZM60.8506 46.1456C58.7801 44.7602 57.7449 42.3852 58.1255 39.9494C58.5061 37.5288 60.1503 35.6714 62.51 34.9711C63.119 34.7884 63.7431 34.6971 64.3369 34.6971C65.6614 34.6971 66.9554 35.1234 68.0363 35.8998C65.8593 36.9503 64.6414 39.173 64.9458 41.5936C65.1894 43.5575 66.3769 45.156 68.082 45.9324C67.8841 46.0847 67.7166 46.2065 67.61 46.2674C65.4939 47.5614 62.9058 47.5157 60.8506 46.1456Z" fill="white"/>
<path d="M97.2345 60.5293H91.7951V21.061H97.2345V60.5293Z" fill="white"/>
<path d="M133.011 21.061H138.45V62.4184L109.201 32.5261V60.6107H103.762V19.4242L133.011 49.5365V21.061Z" fill="white"/>
<path d="M174.919 21.061H180.472L161.931 62.1416L143.203 21.061H148.838L161.939 49.7319L168.348 35.6611L170.343 31.1907L171.865 27.7462L174.919 21.061Z" fill="white"/>
<path d="M184.419 21.061H215.085V26.5004H187.277L184.419 21.061ZM187.277 55.2609H215.085V60.6189H184.419L187.277 55.2609ZM187.277 43.5189V38.0795H215.085V43.5189H187.277Z" fill="white"/>
<path d="M250.861 33.9674C250.861 36.5568 250.161 38.9101 248.752 41.0353C247.343 43.1525 245.495 44.7322 243.199 45.7663L250.861 60.5293H245.397L238.321 46.8738C238.264 46.8738 238.199 46.8738 238.109 46.89C238.028 46.8982 237.963 46.9063 237.93 46.9063H226.799V60.5049H221.335V41.4343H237.93C239.998 41.4343 241.765 40.7096 243.215 39.2521C244.664 37.8026 245.397 36.0356 245.397 33.9674C245.397 31.8991 244.672 30.1321 243.215 28.6827C241.765 27.2332 239.998 26.5004 237.93 26.5004H221.335V21.061H237.93C240.259 21.061 242.425 21.631 244.412 22.7791C246.399 23.9272 247.97 25.4907 249.127 27.4857C250.283 29.4725 250.861 31.6385 250.861 33.9674Z" fill="white"/>
<path d="M269.425 26.5004C267.357 26.5004 265.549 27.2007 264.01 28.6094C262.471 30.0181 261.681 31.7281 261.624 33.7475C261.551 35.8565 262.251 37.6642 263.717 39.1706C265.191 40.6771 266.974 41.4343 269.083 41.4343H285.678V47.175C285.678 50.8719 284.367 54.0394 281.753 56.6696C279.14 59.2997 275.98 60.6107 272.275 60.6107H256.177V55.1469H271.966C274.238 55.1469 276.192 54.3407 277.804 52.7366C279.425 51.1243 280.231 49.1863 280.231 46.9063H269.075C266.705 46.9063 264.523 46.3119 262.528 45.1312C260.533 43.9505 258.962 42.3382 257.822 40.3188C256.682 38.2912 256.136 36.0926 256.169 33.7312C256.201 31.4187 256.836 29.2852 258.066 27.3309C259.295 25.3767 260.932 23.8458 262.968 22.7384C265.004 21.631 267.186 21.0772 269.515 21.0772H285.67V26.5167H269.409L269.425 26.5004Z" fill="white"/>
<path d="M299.433 60.5293H293.994V21.061H299.433V60.5293Z" fill="white"/>
<path d="M335.795 21.061H341.348L322.807 62.1416L304.07 21.061H309.705L322.807 49.7319L329.215 35.6611L331.21 31.1907L332.741 27.7462L335.795 21.061Z" fill="white"/>
<path d="M345.286 21.061H375.952V26.5004H348.144L345.286 21.061ZM348.152 55.2609H375.96V60.6189H345.294L348.152 55.2609ZM348.152 43.5189V38.0795H375.96V43.5189H348.152Z" fill="white"/>
</svg>
