<svg width="399" height="101" viewBox="0 0 399 101" fill="none" xmlns="http://www.w3.org/2000/svg">
<path d="M85.3517 22.4333C76.2999 7.39918 60.3994 -0.95498 42.8082 0.0871556C27.7617 0.975533 14.5939 9.02218 6.68638 22.1599C-1.22113 35.3318 -2.16047 51.4251 4.15871 65.2462C11.3489 80.9295 25.9685 90.9067 43.2864 91.9146C44.2429 91.9659 45.1822 92 46.1215 92C62.2781 92 76.7269 83.9193 85.1809 69.9956C94.2327 55.0811 94.2839 37.3136 85.3346 22.4503L85.3517 22.4333ZM77.1538 74.6767C68.4606 84.2438 55.9931 89.1982 42.9619 88.2586C29.8966 87.3189 18.2317 80.6391 10.9561 69.9102C2.07508 56.8066 1.11867 40.6109 8.36011 26.5847C15.5845 12.5928 29.2988 4.05068 45.0285 3.709C45.3529 3.709 45.6604 3.709 45.9848 3.709C62.7563 3.709 77.41 13.1394 84.3953 28.4981C91.5342 44.1985 88.7674 61.8977 77.1538 74.6938V74.6767Z" fill="white"/>
<path d="M79.5007 19.6299C69.781 9.45184 55.9152 5.63502 42.4231 9.45184C28.9481 13.2514 19.0755 23.7219 15.9828 37.4762C12.8732 51.2992 17.3083 65.1394 27.8265 74.5095C34.8615 80.7506 43.4937 84 52.3808 84C56.7648 84 61.1998 83.2091 65.5329 81.593C77.4107 77.1745 86.1958 67.0135 89.0505 54.4455C91.8882 41.8775 88.3368 28.8625 79.5177 19.6299H79.5007ZM86.1788 41.9807C85.9239 41.1899 85.771 40.3302 85.601 39.419C85.3801 38.2842 85.1592 37.1323 84.7684 35.9632C81.4208 26.3696 73.4854 19.3034 63.5447 17.0683C53.5701 14.8332 43.3747 17.8592 36.2888 25.1833C28.5743 33.1435 25.9913 44.2845 29.3729 54.9957C32.7374 65.638 41.1487 73.1513 51.9049 75.0942C53.7741 75.4379 55.6263 75.5926 57.4275 75.5926C71.2933 75.5926 82.8482 65.8959 86.0428 50.8694C85.8559 52.1072 85.635 53.3452 85.3121 54.5831C82.3555 66.171 73.8083 75.1973 62.4403 78.7389C51.0892 82.2636 39.0076 79.6502 30.1206 71.7415C20.4179 63.1107 16.5266 50.3365 19.7212 37.5621C22.9158 24.8051 32.3296 15.435 44.904 12.5293C56.5268 9.83008 68.4556 13.389 76.7819 22.0542C82.1175 27.6075 85.3292 34.5877 86.1788 41.9636V41.9807ZM80.4523 48.3421C80.1634 48.2389 79.8745 48.0841 79.6197 47.8435C79.0759 47.3449 78.736 46.5884 78.719 45.9007C78.7021 44.9207 79.5177 43.7688 80.4013 43.4249C80.4863 43.9063 80.5883 44.5425 80.6052 44.766C80.6561 45.3505 80.6052 47.3449 80.4523 48.3592V48.3421ZM64.4284 49.2532C65.3799 52.176 67.504 54.5314 70.2738 55.7521C71.7522 56.3883 73.2475 56.6977 74.8278 56.6291C71.99 58.4514 68.4726 59.0188 65.0401 58.142C60.4012 56.9385 57.0196 53.4311 56.0171 48.7546C54.4877 41.6884 58.549 36.7884 62.4742 34.7597C64.1226 33.9001 66.1786 33.3155 68.3707 33.3155C70.5627 33.3155 72.6527 33.8485 74.7259 35.1895C70.9535 35.1379 67.351 37.0464 65.3629 40.4678C63.8166 43.1326 63.4769 46.3305 64.4284 49.2705V49.2532ZM53.4852 52.5887C55.6262 57.5059 60.0613 60.996 65.346 61.9416C68.1498 62.4402 70.9875 62.1823 73.5703 61.271C69.9509 63.9703 65.4819 65.277 60.8429 64.8816C54.9125 64.383 49.7129 61.2367 46.5692 56.1992C43.5106 51.2992 42.7969 45.3677 44.5982 39.8831C46.3824 34.4674 50.4266 30.2036 55.6772 28.1749C57.8693 27.3324 60.1293 26.9197 62.3723 26.9197C66.3146 26.9197 70.1718 28.1749 73.3664 30.4958C73.1116 30.4099 72.8566 30.3411 72.5847 30.2552C66.4675 28.5359 60.0953 30.4787 55.9661 35.3099C51.8709 40.1239 50.9024 46.7259 53.4682 52.5715L53.4852 52.5887ZM68.1498 24.0485C61.0638 22.1229 53.7741 23.7391 48.1326 28.45C42.831 32.8684 39.8912 39.4361 40.0272 46.4336C40.1631 53.414 43.3747 59.8268 48.8123 64.0048C54.5387 68.4061 61.7776 69.7472 68.6935 67.7012C70.9705 67.0307 73.0775 66.0163 74.9807 64.7269C70.5117 69.111 64.5474 71.6899 58.0052 71.8963C48.7443 72.1714 40.2991 67.6497 35.4392 59.7581C30.5964 51.9182 30.2225 42.3073 34.4367 34.0548C38.6507 25.785 46.6202 20.5412 55.7282 20.0083C56.221 19.9738 56.6968 19.9567 57.1896 19.9567C63.7996 19.9567 70.0189 22.6215 74.6579 26.9713C72.6868 25.6819 70.4947 24.7019 68.1327 24.0485H68.1498ZM70.6307 51.7806C68.3197 50.2161 67.1642 47.5339 67.589 44.7831C68.0138 42.0495 69.849 39.9519 72.4828 39.161C73.1626 38.9547 73.8592 38.8516 74.5219 38.8516C76.0003 38.8516 77.4446 39.333 78.6511 40.2098C76.2212 41.3962 74.8618 43.9063 75.2016 46.64C75.4735 48.8578 76.7989 50.6631 78.7021 51.5399C78.4812 51.7119 78.2942 51.8494 78.1753 51.9182C75.8133 53.3795 72.9246 53.3279 70.6307 51.7806Z" fill="white"/>
<path d="M114.235 60.5293H108.795V21.061H114.235V60.5293Z" fill="white"/>
<path d="M151.011 21.061H156.45V62.4184L127.201 32.5261V60.6107H121.762V19.4242L151.011 49.5365V21.061Z" fill="white"/>
<path d="M193.919 21.061H199.472L180.931 62.1416L162.203 21.061H167.838L180.939 49.7319L187.348 35.6611L189.343 31.1907L190.865 27.7462L193.919 21.061Z" fill="white"/>
<path d="M203.419 21.061H234.085V26.5004H206.277L203.419 21.061ZM206.277 55.2609H234.085V60.6189H203.419L206.277 55.2609ZM206.277 43.5189V38.0795H234.085V43.5189H206.277Z" fill="white"/>
<path d="M270.861 33.9674C270.861 36.5568 270.161 38.9101 268.752 41.0353C267.343 43.1525 265.495 44.7322 263.199 45.7663L270.861 60.5293H265.397L258.321 46.8738C258.264 46.8738 258.199 46.8738 258.109 46.89C258.028 46.8982 257.963 46.9063 257.93 46.9063H246.799V60.5049H241.335V41.4343H257.93C259.998 41.4343 261.765 40.7096 263.215 39.2521C264.664 37.8026 265.397 36.0356 265.397 33.9674C265.397 31.8991 264.672 30.1321 263.215 28.6827C261.765 27.2332 259.998 26.5004 257.93 26.5004H241.335V21.061H257.93C260.259 21.061 262.425 21.631 264.412 22.7791C266.399 23.9272 267.97 25.4907 269.127 27.4857C270.283 29.4725 270.861 31.6385 270.861 33.9674Z" fill="white"/>
<path d="M290.425 26.5004C288.357 26.5004 286.549 27.2007 285.01 28.6094C283.471 30.0181 282.681 31.7281 282.624 33.7475C282.551 35.8565 283.251 37.6642 284.717 39.1706C286.191 40.6771 287.974 41.4343 290.083 41.4343H306.678V47.175C306.678 50.8719 305.367 54.0394 302.753 56.6696C300.14 59.2997 296.98 60.6107 293.275 60.6107H277.177V55.1469H292.966C295.238 55.1469 297.192 54.3407 298.804 52.7366C300.425 51.1243 301.231 49.1863 301.231 46.9063H290.075C287.705 46.9063 285.523 46.3119 283.528 45.1312C281.533 43.9505 279.962 42.3382 278.822 40.3188C277.682 38.2912 277.136 36.0926 277.169 33.7312C277.201 31.4187 277.836 29.2852 279.066 27.3309C280.295 25.3767 281.932 23.8458 283.968 22.7384C286.004 21.631 288.186 21.0772 290.515 21.0772H306.67V26.5167H290.409L290.425 26.5004Z" fill="white"/>
<path d="M320.433 60.5293H314.994V21.061H320.433V60.5293Z" fill="white"/>
<path d="M357.795 21.061H363.348L344.807 62.1416L326.07 21.061H331.705L344.807 49.7319L351.215 35.6611L353.21 31.1907L354.741 27.7462L357.795 21.061Z" fill="white"/>
<path d="M368.286 21.061H398.952V26.5004H371.144L368.286 21.061ZM371.152 55.2609H398.96V60.6189H368.294L371.152 55.2609ZM371.152 43.5189V38.0795H398.96V43.5189H371.152Z" fill="white"/>
<g filter="url(#filter0_i_9_16)">
<path d="M272.094 89.9844H279.359V93H269.078V70.7344H272.094V89.9844ZM300.562 69.875L311.109 93H307.938L300.562 76.8594L296.969 84.7656L295.828 87.2969L294.969 89.2344L293.25 93H290.125L300.562 69.875ZM340.703 77.0625C340.703 78 340.505 78.8854 340.109 79.7188C339.714 80.5521 339.172 81.2656 338.484 81.8594C339.172 82.4531 339.714 83.1719 340.109 84.0156C340.505 84.849 340.703 85.7344 340.703 86.6719C340.703 88.4219 340.083 89.9167 338.844 91.1562C337.604 92.3854 336.109 93 334.359 93H323.422V80.3281H334.359C335.255 80.3281 336.021 80.0104 336.656 79.375C337.302 78.7396 337.625 77.9688 337.625 77.0625V73.7969H323.422V70.7344H340.703V77.0625ZM334.359 89.9375C335.255 89.9375 336.021 89.6198 336.656 88.9844C337.302 88.349 337.625 87.5781 337.625 86.6719C337.625 85.7656 337.307 84.9948 336.672 84.3594C336.036 83.7135 335.266 83.3906 334.359 83.3906H326.484V89.9375H334.359ZM360.016 73.7969C358.849 73.7969 357.833 74.1927 356.969 74.9844C356.104 75.776 355.656 76.7396 355.625 77.875C355.583 79.0625 355.974 80.0833 356.797 80.9375C357.63 81.7812 358.641 82.2031 359.828 82.2031H369.172V85.4375C369.172 87.5208 368.432 89.3021 366.953 90.7812C365.484 92.2604 363.708 93 361.625 93H352.562V89.9219H361.453C362.734 89.9219 363.828 89.4688 364.734 88.5625C365.651 87.6562 366.109 86.5625 366.109 85.2812H359.828C358.495 85.2812 357.266 84.9479 356.141 84.2812C355.016 83.6146 354.13 82.7135 353.484 81.5781C352.849 80.4323 352.542 79.1927 352.562 77.8594C352.583 76.5573 352.938 75.3594 353.625 74.2656C354.323 73.1615 355.245 72.2969 356.391 71.6719C357.536 71.0469 358.766 70.7344 360.078 70.7344H369.172V73.7969H360.016Z" fill="white"/>
</g>
<defs>
<filter id="filter0_i_9_16" x="269.078" y="69.875" width="100.094" height="27.125" filterUnits="userSpaceOnUse" color-interpolation-filters="sRGB">
<feFlood flood-opacity="0" result="BackgroundImageFix"/>
<feBlend mode="normal" in="SourceGraphic" in2="BackgroundImageFix" result="shape"/>
<feColorMatrix in="SourceAlpha" type="matrix" values="0 0 0 0 0 0 0 0 0 0 0 0 0 0 0 0 0 0 127 0" result="hardAlpha"/>
<feOffset dy="4"/>
<feGaussianBlur stdDeviation="2"/>
<feComposite in2="hardAlpha" operator="arithmetic" k2="-1" k3="1"/>
<feColorMatrix type="matrix" values="0 0 0 0 0 0 0 0 0 0 0 0 0 0 0 0 0 0 0.25 0"/>
<feBlend mode="plus-darker" in2="shape" result="effect1_innerShadow_9_16"/>
</filter>
</defs>
</svg>
