<svg width="378" height="89" viewBox="0 0 378 89" fill="none" xmlns="http://www.w3.org/2000/svg">
<path d="M65.8711 17.3126C58.8855 5.71024 46.6145 -0.736995 33.0387 0.0672614C21.4267 0.752857 11.2646 6.96277 5.16206 17.1017C-0.94048 27.2669 -1.6654 39.6868 3.21136 50.353C8.76032 62.4565 20.0428 70.1562 33.4077 70.9341C34.1459 70.9737 34.8708 71 35.5957 71C48.0643 71 59.215 64.7638 65.7394 54.0184C72.725 42.5083 72.7645 28.7963 65.858 17.3258L65.8711 17.3126ZM59.5445 57.6309C52.8356 65.0142 43.214 68.8378 33.1573 68.1126C23.0743 67.3874 14.0721 62.2324 8.45717 53.9525C1.60334 43.8399 0.865237 31.341 6.45374 20.5164C12.0291 9.71838 22.6129 3.12607 34.7521 2.86238C35.0025 2.86238 35.2398 2.86238 35.4902 2.86238C48.4334 2.86238 59.7422 10.1402 65.1331 21.9931C70.6424 34.1097 68.5072 47.7689 59.5445 57.6441V57.6309Z" fill="white"/>
<path d="M61.0225 15.0285C53.6356 7.12708 43.0976 4.16403 32.8436 7.12708C22.6025 10.0768 15.0994 18.2052 12.749 28.8828C10.3856 39.6139 13.7563 50.3582 21.7502 57.6324C27.0967 62.4774 33.6572 65 40.4114 65C43.7433 65 47.1138 64.386 50.407 63.1314C59.4341 59.7012 66.1108 51.8131 68.2804 42.0564C70.437 32.2996 67.738 22.1959 61.0354 15.0285H61.0225ZM66.0979 32.3798C65.9042 31.7658 65.7879 31.0985 65.6587 30.391C65.4909 29.5101 65.323 28.6159 65.026 27.7083C62.4818 20.2606 56.4509 14.775 48.896 13.0399C41.3153 11.3047 33.5668 13.6538 28.1815 19.3397C22.3184 25.5193 20.3554 34.1683 22.9254 42.4835C25.4825 50.7453 31.875 56.578 40.0498 58.0863C41.4703 58.3531 42.878 58.4732 44.2469 58.4732C54.7849 58.4732 63.5666 50.9455 65.9946 39.2802C65.8525 40.2411 65.6846 41.2022 65.4392 42.1632C63.1922 51.1591 56.6963 58.1663 48.0566 60.9158C39.4298 63.652 30.2478 61.6232 23.4937 55.4836C16.1196 48.7833 13.1623 38.8665 15.5901 28.9496C18.018 19.046 25.1725 11.7719 34.7291 9.51619C43.5624 7.42072 52.6283 10.1835 58.9563 16.9105C63.0113 21.2216 65.4522 26.6405 66.0979 32.3664V32.3798ZM61.7458 37.3182C61.5262 37.2381 61.3066 37.118 61.113 36.9311C60.6997 36.5441 60.4414 35.9567 60.4285 35.4229C60.4156 34.6621 61.0354 33.7679 61.707 33.5009C61.7716 33.8746 61.8491 34.3685 61.862 34.542C61.9007 34.9958 61.862 36.5441 61.7458 37.3315V37.3182ZM49.5676 38.0255C50.2907 40.2945 51.905 42.1231 54.0101 43.0707C55.1337 43.5646 56.2701 43.8048 57.4711 43.7515C55.3144 45.1663 52.6412 45.6067 50.0325 44.926C46.5069 43.9917 43.9369 41.2689 43.175 37.6385C42.0127 32.1529 45.0993 28.3489 48.0824 26.774C49.3352 26.1066 50.8978 25.6529 52.5637 25.6529C54.2297 25.6529 55.8181 26.0666 57.3937 27.1077C54.5266 27.0676 51.7888 28.5492 50.2779 31.2052C49.1026 33.274 48.8444 35.7566 49.5676 38.0389V38.0255ZM41.2508 40.6149C42.8779 44.4322 46.2486 47.1417 50.265 47.8757C52.3958 48.2628 54.5525 48.0626 56.5154 47.3551C53.7647 49.4506 50.3683 50.465 46.8426 50.1581C42.3355 49.771 38.3838 47.3285 35.9946 43.4178C33.6701 39.6139 33.1277 35.0091 34.4967 30.7514C35.8526 26.5471 38.9262 23.237 42.9167 21.6621C44.5826 21.008 46.3003 20.6877 48.005 20.6877C51.0011 20.6877 53.9326 21.6621 56.3605 23.4639C56.1668 23.3972 55.9731 23.3438 55.7664 23.2771C51.1173 21.9423 46.2745 23.4506 43.1362 27.2011C40.0239 30.9383 39.2878 36.0635 41.2379 40.6016L41.2508 40.6149ZM52.3958 18.4587C47.0105 16.9639 41.4703 18.2185 37.1828 21.8756C33.1536 25.3058 30.9194 30.4044 31.0227 35.8366C31.126 41.2556 33.5668 46.234 37.6993 49.4774C42.0515 52.8942 47.553 53.9353 52.809 52.347C54.5396 51.8265 56.1409 51.039 57.5873 50.038C54.1909 53.4414 49.658 55.4435 44.686 55.6037C37.6477 55.8172 31.2293 52.307 27.5358 46.1806C23.8553 40.0944 23.5711 32.6333 26.7739 26.2267C29.9766 19.8068 36.0334 15.7359 42.9555 15.3222C43.33 15.2955 43.6916 15.2821 44.0661 15.2821C49.0897 15.2821 53.8164 17.3509 57.342 20.7278C55.8439 19.7267 54.178 18.9659 52.3829 18.4587H52.3958ZM54.2813 39.9876C52.525 38.773 51.6468 36.6908 51.9697 34.5553C52.2925 32.4332 53.6873 30.8048 55.689 30.1908C56.2056 30.0306 56.735 29.9506 57.2387 29.9506C58.3622 29.9506 59.4599 30.3243 60.3768 31.005C58.5301 31.926 57.497 33.8746 57.7552 35.9968C57.9619 37.7186 58.9692 39.12 60.4156 39.8007C60.2477 39.9342 60.1056 40.041 60.0152 40.0944C58.2202 41.2289 56.0247 41.1888 54.2813 39.9876Z" fill="white"/>
<path d="M93.2345 53.5293H87.7951V14.061H93.2345V53.5293Z" fill="white"/>
<path d="M130.011 14.061H135.45V55.4184L106.201 25.5261V53.6107H100.762V12.4242L130.011 42.5365V14.061Z" fill="white"/>
<path d="M172.919 14.061H178.472L159.931 55.1416L141.203 14.061H146.838L159.939 42.7319L166.348 28.6611L168.343 24.1907L169.865 20.7462L172.919 14.061Z" fill="white"/>
<path d="M182.419 14.061H213.085V19.5004H185.277L182.419 14.061ZM185.277 48.2609H213.085V53.6189H182.419L185.277 48.2609ZM185.277 36.5189V31.0795H213.085V36.5189H185.277Z" fill="white"/>
<path d="M249.861 26.9674C249.861 29.5568 249.161 31.9101 247.752 34.0353C246.343 36.1525 244.495 37.7322 242.199 38.7663L249.861 53.5293H244.397L237.321 39.8738C237.264 39.8738 237.199 39.8738 237.109 39.89C237.028 39.8982 236.963 39.9063 236.93 39.9063H225.799V53.5049H220.335V34.4343H236.93C238.998 34.4343 240.765 33.7096 242.215 32.2521C243.664 30.8026 244.397 29.0356 244.397 26.9674C244.397 24.8991 243.672 23.1321 242.215 21.6827C240.765 20.2332 238.998 19.5004 236.93 19.5004H220.335V14.061H236.93C239.259 14.061 241.425 14.631 243.412 15.7791C245.399 16.9272 246.97 18.4907 248.127 20.4857C249.283 22.4725 249.861 24.6385 249.861 26.9674Z" fill="white"/>
<path d="M269.425 19.5004C267.357 19.5004 265.549 20.2007 264.01 21.6094C262.471 23.0181 261.681 24.7281 261.624 26.7475C261.551 28.8565 262.251 30.6642 263.717 32.1706C265.191 33.6771 266.974 34.4343 269.083 34.4343H285.678V40.175C285.678 43.8719 284.367 47.0394 281.753 49.6696C279.14 52.2997 275.98 53.6107 272.275 53.6107H256.177V48.1469H271.966C274.238 48.1469 276.192 47.3407 277.804 45.7366C279.425 44.1243 280.231 42.1863 280.231 39.9063H269.075C266.705 39.9063 264.523 39.3119 262.528 38.1312C260.533 36.9505 258.962 35.3382 257.822 33.3188C256.682 31.2912 256.136 29.0926 256.169 26.7312C256.201 24.4187 256.836 22.2852 258.066 20.3309C259.295 18.3767 260.932 16.8458 262.968 15.7384C265.004 14.631 267.186 14.0772 269.515 14.0772H285.67V19.5167H269.409L269.425 19.5004Z" fill="white"/>
<path d="M299.433 53.5293H293.994V14.061H299.433V53.5293Z" fill="white"/>
<path d="M336.795 14.061H342.348L323.807 55.1416L305.07 14.061H310.705L323.807 42.7319L330.215 28.6611L332.21 24.1907L333.741 20.7462L336.795 14.061Z" fill="white"/>
<path d="M347.286 14.061H377.952V19.5004H350.144L347.286 14.061ZM350.152 48.2609H377.96V53.6189H347.294L350.152 48.2609ZM350.152 36.5189V31.0795H377.96V36.5189H350.152Z" fill="white"/>
<g filter="url(#filter0_d_21_19)">
<rect width="72" height="26" transform="translate(287 55)" fill="url(#paint0_linear_21_19)"/>
<g filter="url(#filter1_i_21_19)">
<path d="M292.214 61.82L290.52 73.788C290.476 74.2133 290.535 74.5507 290.696 74.8C290.872 75.0493 291.209 75.174 291.708 75.174H297.164L297.098 76.89C296.145 76.9487 295.147 76.9853 294.106 77C293.079 77.0147 292.075 77.022 291.092 77.022C290.476 77.022 289.941 76.9047 289.486 76.67C289.031 76.4207 288.701 76.0613 288.496 75.592C288.291 75.108 288.239 74.5287 288.342 73.854L289.992 61.82H292.214ZM311.3 61.82C311.505 61.82 311.674 61.886 311.806 62.018C311.953 62.1353 312.033 62.282 312.048 62.458L314.798 77H312.598L310.552 64.812C310.523 64.592 310.493 64.372 310.464 64.152C310.435 63.9173 310.413 63.6973 310.398 63.492H309.738C309.65 63.6827 309.555 63.9027 309.452 64.152C309.364 64.3867 309.269 64.6067 309.166 64.812L303.71 77H301.378L308.242 62.392C308.301 62.1867 308.403 62.04 308.55 61.952C308.697 61.864 308.865 61.82 309.056 61.82H311.3ZM312.84 70.554L312.62 72.402H304.876L305.118 70.554H312.84ZM328.181 61.644C329.398 61.644 330.374 61.7613 331.107 61.996C331.84 62.2307 332.339 62.6413 332.603 63.228C332.882 63.8147 332.948 64.6287 332.801 65.67C332.654 66.7407 332.346 67.562 331.877 68.134C331.422 68.6913 330.718 69.014 329.765 69.102L329.743 69.19C330.887 69.2927 331.635 69.7107 331.987 70.444C332.339 71.1627 332.427 72.1087 332.251 73.282C332.09 74.3233 331.811 75.13 331.415 75.702C331.019 76.2593 330.462 76.648 329.743 76.868C329.024 77.0733 328.086 77.176 326.927 77.176C326.018 77.176 325.233 77.1687 324.573 77.154C323.928 77.154 323.326 77.1393 322.769 77.11C322.226 77.0807 321.654 77.044 321.053 77L321.537 75.306C321.889 75.3207 322.512 75.3353 323.407 75.35C324.302 75.3647 325.358 75.372 326.575 75.372C327.382 75.372 328.02 75.306 328.489 75.174C328.973 75.0273 329.332 74.7633 329.567 74.382C329.816 73.986 329.985 73.4433 330.073 72.754C330.19 72.006 330.183 71.434 330.051 71.038C329.919 70.642 329.64 70.3633 329.215 70.202C328.804 70.0407 328.203 69.9527 327.411 69.938H322.351L322.571 68.332H327.499C328.188 68.3173 328.753 68.244 329.193 68.112C329.633 67.9653 329.97 67.7087 330.205 67.342C330.44 66.9753 330.601 66.4547 330.689 65.78C330.792 65.1347 330.77 64.6433 330.623 64.306C330.491 63.9687 330.22 63.7413 329.809 63.624C329.398 63.5067 328.819 63.448 328.071 63.448C327.323 63.448 326.648 63.448 326.047 63.448C325.46 63.448 324.94 63.448 324.485 63.448C324.045 63.448 323.664 63.4627 323.341 63.492L323.187 61.82C323.715 61.7613 324.214 61.7247 324.683 61.71C325.167 61.6807 325.688 61.666 326.245 61.666C326.802 61.6513 327.448 61.644 328.181 61.644ZM325.343 61.82L323.209 77H321.053L323.187 61.82H325.343ZM346.017 61.556C346.765 61.5707 347.535 61.6073 348.327 61.666C349.119 61.7247 349.875 61.842 350.593 62.018L350.395 63.58C349.897 63.5507 349.398 63.536 348.899 63.536C348.415 63.5213 347.931 63.514 347.447 63.514C346.963 63.4993 346.465 63.492 345.951 63.492C345.482 63.492 345.064 63.5067 344.697 63.536C344.331 63.5507 344.015 63.6167 343.751 63.734C343.487 63.8513 343.267 64.0567 343.091 64.35C342.93 64.6433 342.813 65.054 342.739 65.582C342.695 66.0513 342.703 66.4253 342.761 66.704C342.82 66.9827 342.967 67.2027 343.201 67.364C343.436 67.5253 343.773 67.6867 344.213 67.848L347.139 68.97C347.917 69.2633 348.503 69.6007 348.899 69.982C349.295 70.3633 349.545 70.8253 349.647 71.368C349.765 71.896 349.772 72.534 349.669 73.282C349.523 74.382 349.229 75.218 348.789 75.79C348.364 76.362 347.755 76.7507 346.963 76.956C346.186 77.1613 345.181 77.264 343.949 77.264C343.48 77.264 342.827 77.2347 341.991 77.176C341.17 77.132 340.246 77.0147 339.219 76.824L339.483 75.218C340.349 75.2473 341.053 75.2767 341.595 75.306C342.138 75.3207 342.593 75.328 342.959 75.328C343.326 75.328 343.656 75.328 343.949 75.328C344.756 75.328 345.401 75.2767 345.885 75.174C346.369 75.0567 346.736 74.844 346.985 74.536C347.235 74.228 347.403 73.744 347.491 73.084C347.55 72.6 347.543 72.226 347.469 71.962C347.411 71.6833 347.264 71.4633 347.029 71.302C346.795 71.126 346.465 70.9647 346.039 70.818L343.047 69.674C342.329 69.3953 341.771 69.058 341.375 68.662C340.979 68.266 340.723 67.7967 340.605 67.254C340.488 66.7113 340.473 66.0953 340.561 65.406C340.664 64.5553 340.862 63.8733 341.155 63.36C341.449 62.8467 341.823 62.4653 342.277 62.216C342.747 61.952 343.289 61.776 343.905 61.688C344.536 61.6 345.24 61.556 346.017 61.556Z" fill="white"/>
</g>
</g>
<defs>
<filter id="filter0_d_21_19" x="283" y="55" width="80" height="34" filterUnits="userSpaceOnUse" color-interpolation-filters="sRGB">
<feFlood flood-opacity="0" result="BackgroundImageFix"/>
<feColorMatrix in="SourceAlpha" type="matrix" values="0 0 0 0 0 0 0 0 0 0 0 0 0 0 0 0 0 0 127 0" result="hardAlpha"/>
<feOffset dy="4"/>
<feGaussianBlur stdDeviation="2"/>
<feComposite in2="hardAlpha" operator="out"/>
<feColorMatrix type="matrix" values="0 0 0 0 0 0 0 0 0 0 0 0 0 0 0 0 0 0 0.25 0"/>
<feBlend mode="normal" in2="BackgroundImageFix" result="effect1_dropShadow_21_19"/>
<feBlend mode="normal" in="SourceGraphic" in2="effect1_dropShadow_21_19" result="shape"/>
</filter>
<filter id="filter1_i_21_19" x="288.188" y="61.556" width="62.4054" height="19.708" filterUnits="userSpaceOnUse" color-interpolation-filters="sRGB">
<feFlood flood-opacity="0" result="BackgroundImageFix"/>
<feBlend mode="normal" in="SourceGraphic" in2="BackgroundImageFix" result="shape"/>
<feColorMatrix in="SourceAlpha" type="matrix" values="0 0 0 0 0 0 0 0 0 0 0 0 0 0 0 0 0 0 127 0" result="hardAlpha"/>
<feOffset dy="4"/>
<feGaussianBlur stdDeviation="2"/>
<feComposite in2="hardAlpha" operator="arithmetic" k2="-1" k3="1"/>
<feColorMatrix type="matrix" values="0 0 0 0 0 0 0 0 0 0 0 0 0 0 0 0 0 0 0.25 0"/>
<feBlend mode="plus-darker" in2="shape" result="effect1_innerShadow_21_19"/>
</filter>
<linearGradient id="paint0_linear_21_19" x1="36" y1="0" x2="36" y2="26" gradientUnits="userSpaceOnUse">
<stop offset="0.346154" stop-color="white" stop-opacity="0"/>
<stop offset="0.552885" stop-color="#999999" stop-opacity="0"/>
</linearGradient>
</defs>
</svg>
