<svg width="297" height="65" viewBox="0 0 297 65" fill="none" xmlns="http://www.w3.org/2000/svg">
<path d="M51.7559 13.655C46.2665 4.50385 36.6238 -0.581292 25.9557 0.0530512C16.8308 0.593803 8.84529 5.49176 4.04983 13.4887C-0.74564 21.5063 -1.31529 31.3023 2.51694 39.715C6.87739 49.2615 15.7433 55.3345 26.2457 55.948C26.8258 55.9793 27.3954 56 27.965 56C37.7631 56 46.5254 51.0813 51.6524 42.6061C57.1418 33.5277 57.1728 22.7126 51.7456 13.6654L51.7559 13.655ZM46.7844 45.4554C41.5124 51.2788 33.9516 54.2946 26.0489 53.7226C18.1255 53.1506 11.0515 49.0847 6.63917 42.5541C1.25333 34.5779 0.67332 24.7197 5.06485 16.1819C9.44605 7.6652 17.763 2.46563 27.3021 2.25765C27.4989 2.25765 27.6854 2.25765 27.8821 2.25765C38.0531 2.25765 46.9397 7.9979 51.176 17.3467C55.5053 26.9034 53.8274 37.6769 46.7844 45.4658V45.4554Z" fill="white"/>
<path d="M47.9457 11.8535C42.141 5.62136 33.8601 3.2843 25.8023 5.62136C17.7547 7.9479 11.8587 14.359 10.0117 22.7808C8.15448 31.2448 10.8032 39.7191 17.0849 45.4565C21.2863 49.2779 26.4416 51.2676 31.7492 51.2676C34.3675 51.2676 37.016 50.7833 39.6039 49.7938C46.6975 47.0883 51.9442 40.8667 53.6491 33.1712C55.3438 25.4757 53.2229 17.5066 47.9558 11.8535H47.9457ZM51.934 25.539C51.7818 25.0547 51.6904 24.5284 51.5889 23.9704C51.457 23.2756 51.3251 22.5703 51.0917 21.8544C49.0925 15.9802 44.3533 11.6535 38.4165 10.285C32.4595 8.91638 26.3706 10.7692 22.1388 15.2538C17.5314 20.1279 15.9889 26.9496 18.0084 33.5081C20.0178 40.0245 25.0412 44.6249 31.465 45.8145C32.5813 46.025 33.6875 46.1197 34.7632 46.1197C43.0441 46.1197 49.9449 40.1824 51.8529 30.9816C51.7412 31.7395 51.6093 32.4975 51.4164 33.2555C49.6507 40.3508 44.5461 45.8776 37.7569 48.0463C30.9778 50.2044 23.7625 48.6042 18.455 43.7617C12.6603 38.477 10.3364 30.6553 12.2443 22.8335C14.1521 15.0222 19.7742 9.28488 27.284 7.50572C34.2253 5.85296 41.3494 8.03205 46.3221 13.3379C49.5085 16.7382 51.4266 21.0122 51.934 25.5284V25.539ZM48.5141 29.4341C48.3415 29.3709 48.169 29.2762 48.0168 29.1287C47.6921 28.8235 47.4891 28.3602 47.4789 27.9392C47.4688 27.3391 47.9558 26.6338 48.4836 26.4232C48.5344 26.718 48.5953 27.1075 48.6054 27.2444C48.6358 27.6023 48.6054 28.8235 48.5141 29.4446V29.4341ZM38.9443 29.9919C39.5125 31.7816 40.781 33.2239 42.4353 33.9713C43.3182 34.3608 44.2112 34.5503 45.155 34.5082C43.4602 35.6241 41.3596 35.9715 39.3096 35.4346C36.5391 34.6977 34.5196 32.5501 33.9209 29.6867C33.0075 25.36 35.433 22.3597 37.7772 21.1175C38.7617 20.5911 39.9896 20.2333 41.2987 20.2333C42.6078 20.2333 43.856 20.5596 45.0941 21.3807C42.8411 21.3491 40.6897 22.5177 39.5024 24.6125C38.5789 26.2443 38.376 28.2024 38.9443 30.0025V29.9919ZM32.4088 32.0343C33.6874 35.0451 36.3362 37.1822 39.4923 37.7611C41.1667 38.0664 42.8615 37.9085 44.404 37.3505C42.2424 39.0033 39.5735 39.8034 36.8029 39.5613C33.2612 39.256 30.1559 37.3295 28.2784 34.245C26.4518 31.2448 26.0256 27.6128 27.1013 24.2546C28.1668 20.9386 30.5821 18.3278 33.7179 17.0856C35.027 16.5697 36.3768 16.3171 37.7164 16.3171C40.0707 16.3171 42.3744 17.0856 44.2822 18.5067C44.13 18.4541 43.9778 18.412 43.8154 18.3594C40.1621 17.3066 36.3565 18.4962 33.8904 21.4544C31.4447 24.402 30.8663 28.4444 32.3987 32.0238L32.4088 32.0343ZM41.1667 14.559C36.9349 13.38 32.5813 14.3695 29.2121 17.254C26.0459 19.9595 24.2902 23.9809 24.3714 28.2655C24.4526 32.5396 26.3706 36.4662 29.618 39.0244C33.038 41.7194 37.3612 42.5405 41.4914 41.2878C42.8513 40.8772 44.1097 40.2561 45.2463 39.4666C42.5773 42.151 39.0153 43.7301 35.1082 43.8564C29.5774 44.0248 24.5338 41.2562 21.6314 36.4241C18.7392 31.6237 18.5158 25.7389 21.0326 20.6858C23.5494 15.6223 28.3089 12.4114 33.7484 12.0851C34.0427 12.0641 34.3268 12.0535 34.6211 12.0535C38.5687 12.0535 42.2831 13.6852 45.0535 16.3487C43.8763 15.5591 42.5672 14.959 41.1566 14.559H41.1667ZM42.6484 31.5395C41.2682 30.5815 40.5781 28.9392 40.8319 27.2549C41.0855 25.5811 42.1816 24.2967 43.7546 23.8125C44.1605 23.6861 44.5765 23.623 44.9723 23.623C45.8552 23.623 46.7178 23.9178 47.4383 24.4546C45.9871 25.1811 45.1753 26.718 45.3782 28.3918C45.5406 29.7499 46.3322 30.8552 47.4688 31.3921C47.3369 31.4974 47.2252 31.5816 47.1542 31.6237C45.7436 32.5186 44.0184 32.4869 42.6484 31.5395Z" fill="white"/>
<path d="M73.2585 42.2203H68.9841V11.0904H73.2585V42.2203Z" fill="white"/>
<path d="M102.158 11.0904H106.432V43.7103L83.4478 20.1333V42.2845H79.1737V9.79938L102.158 33.5499V11.0904Z" fill="white"/>
<path d="M135.876 11.0904H140.239L125.67 43.492L110.953 11.0904H115.381L125.676 33.704L130.712 22.6059L132.28 19.08L133.476 16.3632L135.876 11.0904Z" fill="white"/>
<path d="M143.341 11.0904H167.439V15.3806H145.587L143.341 11.0904ZM145.587 38.0649H167.439V42.291H143.341L145.587 38.0649ZM145.587 28.8036V24.5134H167.439V28.8036H145.587Z" fill="white"/>
<g filter="url(#filter0_d_35_2)">
<path d="M196.338 21.2701C196.338 23.3124 195.788 25.1685 194.681 26.8447C193.573 28.5146 192.121 29.7606 190.317 30.5762L196.338 42.2203H192.044L186.484 31.4498C186.439 31.4498 186.388 31.4498 186.317 31.4625C186.254 31.469 186.203 31.4754 186.177 31.4754H177.43V42.201H173.136V27.1594H186.177C187.802 27.1594 189.19 26.5879 190.33 25.4383C191.468 24.295 192.044 22.9013 192.044 21.2701C192.044 19.6387 191.475 18.245 190.33 17.1018C189.19 15.9586 187.802 15.3806 186.177 15.3806H173.136V11.0904H186.177C188.007 11.0904 189.709 11.5399 191.27 12.4455C192.832 13.351 194.066 14.5842 194.975 16.1577C195.884 17.7248 196.338 19.4332 196.338 21.2701Z" fill="white"/>
</g>
<path d="M214.154 37.9975C215.779 37.9848 217.195 37.4214 218.396 36.3009C219.597 35.1804 220.207 33.8269 220.239 32.2338C220.284 30.57 219.722 29.1485 218.561 27.9694C217.394 26.7903 215.988 26.204 214.331 26.2169L201.29 26.3187L201.255 21.791C201.232 18.8752 202.243 16.3689 204.281 14.2784C206.318 12.188 208.793 11.1346 211.704 11.1119L224.354 11.0132L224.388 15.3225L211.981 15.4194C210.195 15.4333 208.665 16.0811 207.408 17.3562C206.144 18.6378 205.523 20.1712 205.537 21.9695L214.303 21.9011C216.166 21.8865 217.884 22.342 219.459 23.261C221.034 24.1799 222.278 25.4419 223.186 27.0277C224.095 28.6199 224.537 30.3506 224.526 32.2132C224.515 34.0373 224.029 35.7239 223.074 37.2728C222.121 38.8217 220.844 40.0391 219.251 40.925C217.658 41.8109 215.947 42.2611 214.116 42.2754L201.422 42.3745L201.389 38.0843L214.166 37.9846L214.154 37.9975Z" fill="white"/>
<path d="M235.292 42.2203H231.018V11.0904H235.292V42.2203Z" fill="white"/>
<path d="M264.652 11.0904H269.016L254.446 43.492L239.722 11.0904H244.15L254.446 33.704L259.481 22.6059L261.049 19.08L262.252 16.3632L264.652 11.0904Z" fill="white"/>
<path d="M272.896 11.0904H296.994V15.3806H275.142L272.896 11.0904ZM275.148 38.0649H297V42.291H272.902L275.148 38.0649ZM275.148 28.8036V24.5134H297V28.8036H275.148Z" fill="white"/>
<path d="M225.206 48.82L223.512 60.788C223.468 61.2133 223.527 61.5507 223.688 61.8C223.864 62.0493 224.201 62.174 224.7 62.174H230.156L230.09 63.89C229.137 63.9487 228.139 63.9853 227.098 64C226.071 64.0147 225.067 64.022 224.084 64.022C223.468 64.022 222.933 63.9047 222.478 63.67C222.023 63.4207 221.693 63.0613 221.488 62.592C221.283 62.108 221.231 61.5287 221.334 60.854L222.984 48.82H225.206ZM244.292 48.82C244.497 48.82 244.666 48.886 244.798 49.018C244.945 49.1353 245.025 49.282 245.04 49.458L247.79 64H245.59L243.544 51.812C243.515 51.592 243.485 51.372 243.456 51.152C243.427 50.9173 243.405 50.6973 243.39 50.492H242.73C242.642 50.6827 242.547 50.9027 242.444 51.152C242.356 51.3867 242.261 51.6067 242.158 51.812L236.702 64H234.37L241.234 49.392C241.293 49.1867 241.395 49.04 241.542 48.952C241.689 48.864 241.857 48.82 242.048 48.82H244.292ZM245.832 57.554L245.612 59.402H237.868L238.11 57.554H245.832ZM261.173 48.644C262.39 48.644 263.366 48.7613 264.099 48.996C264.832 49.2307 265.331 49.6413 265.595 50.228C265.874 50.8147 265.94 51.6287 265.793 52.67C265.646 53.7407 265.338 54.562 264.869 55.134C264.414 55.6913 263.71 56.014 262.757 56.102L262.735 56.19C263.879 56.2927 264.627 56.7107 264.979 57.444C265.331 58.1627 265.419 59.1087 265.243 60.282C265.082 61.3233 264.803 62.13 264.407 62.702C264.011 63.2593 263.454 63.648 262.735 63.868C262.016 64.0733 261.078 64.176 259.919 64.176C259.01 64.176 258.225 64.1687 257.565 64.154C256.92 64.154 256.318 64.1393 255.761 64.11C255.218 64.0807 254.646 64.044 254.045 64L254.529 62.306C254.881 62.3207 255.504 62.3353 256.399 62.35C257.294 62.3647 258.35 62.372 259.567 62.372C260.374 62.372 261.012 62.306 261.481 62.174C261.965 62.0273 262.324 61.7633 262.559 61.382C262.808 60.986 262.977 60.4433 263.065 59.754C263.182 59.006 263.175 58.434 263.043 58.038C262.911 57.642 262.632 57.3633 262.207 57.202C261.796 57.0407 261.195 56.9527 260.403 56.938H255.343L255.563 55.332H260.491C261.18 55.3173 261.745 55.244 262.185 55.112C262.625 54.9653 262.962 54.7087 263.197 54.342C263.432 53.9753 263.593 53.4547 263.681 52.78C263.784 52.1347 263.762 51.6433 263.615 51.306C263.483 50.9687 263.212 50.7413 262.801 50.624C262.39 50.5067 261.811 50.448 261.063 50.448C260.315 50.448 259.64 50.448 259.039 50.448C258.452 50.448 257.932 50.448 257.477 50.448C257.037 50.448 256.656 50.4627 256.333 50.492L256.179 48.82C256.707 48.7613 257.206 48.7247 257.675 48.71C258.159 48.6807 258.68 48.666 259.237 48.666C259.794 48.6513 260.44 48.644 261.173 48.644ZM258.335 48.82L256.201 64H254.045L256.179 48.82H258.335ZM279.009 48.556C279.757 48.5707 280.527 48.6073 281.319 48.666C282.111 48.7247 282.867 48.842 283.585 49.018L283.387 50.58C282.889 50.5507 282.39 50.536 281.891 50.536C281.407 50.5213 280.923 50.514 280.439 50.514C279.955 50.4993 279.457 50.492 278.943 50.492C278.474 50.492 278.056 50.5067 277.689 50.536C277.323 50.5507 277.007 50.6167 276.743 50.734C276.479 50.8513 276.259 51.0567 276.083 51.35C275.922 51.6433 275.805 52.054 275.731 52.582C275.687 53.0513 275.695 53.4253 275.753 53.704C275.812 53.9827 275.959 54.2027 276.193 54.364C276.428 54.5253 276.765 54.6867 277.205 54.848L280.131 55.97C280.909 56.2633 281.495 56.6007 281.891 56.982C282.287 57.3633 282.537 57.8253 282.639 58.368C282.757 58.896 282.764 59.534 282.661 60.282C282.515 61.382 282.221 62.218 281.781 62.79C281.356 63.362 280.747 63.7507 279.955 63.956C279.178 64.1613 278.173 64.264 276.941 64.264C276.472 64.264 275.819 64.2347 274.983 64.176C274.162 64.132 273.238 64.0147 272.211 63.824L272.475 62.218C273.341 62.2473 274.045 62.2767 274.587 62.306C275.13 62.3207 275.585 62.328 275.951 62.328C276.318 62.328 276.648 62.328 276.941 62.328C277.748 62.328 278.393 62.2767 278.877 62.174C279.361 62.0567 279.728 61.844 279.977 61.536C280.227 61.228 280.395 60.744 280.483 60.084C280.542 59.6 280.535 59.226 280.461 58.962C280.403 58.6833 280.256 58.4633 280.021 58.302C279.787 58.126 279.457 57.9647 279.031 57.818L276.039 56.674C275.321 56.3953 274.763 56.058 274.367 55.662C273.971 55.266 273.715 54.7967 273.597 54.254C273.48 53.7113 273.465 53.0953 273.553 52.406C273.656 51.5553 273.854 50.8733 274.147 50.36C274.441 49.8467 274.815 49.4653 275.269 49.216C275.739 48.952 276.281 48.776 276.897 48.688C277.528 48.6 278.232 48.556 279.009 48.556Z" fill="white"/>
<defs>
<filter id="filter0_d_35_2" x="169.136" y="11.0904" width="31.2019" height="39.1299" filterUnits="userSpaceOnUse" color-interpolation-filters="sRGB">
<feFlood flood-opacity="0" result="BackgroundImageFix"/>
<feColorMatrix in="SourceAlpha" type="matrix" values="0 0 0 0 0 0 0 0 0 0 0 0 0 0 0 0 0 0 127 0" result="hardAlpha"/>
<feOffset dy="4"/>
<feGaussianBlur stdDeviation="2"/>
<feComposite in2="hardAlpha" operator="out"/>
<feColorMatrix type="matrix" values="0 0 0 0 0 0 0 0 0 0 0 0 0 0 0 0 0 0 0.25 0"/>
<feBlend mode="normal" in2="BackgroundImageFix" result="effect1_dropShadow_35_2"/>
<feBlend mode="normal" in="SourceGraphic" in2="effect1_dropShadow_35_2" result="shape"/>
</filter>
</defs>
</svg>
