<svg width="397" height="82" viewBox="0 0 397 82" fill="none" xmlns="http://www.w3.org/2000/svg">
<path d="M79.5733 22.288C72.1942 10.0319 59.2318 3.22148 44.8912 4.07105C32.625 4.79527 21.8904 11.355 15.444 22.0651C8.99767 32.8031 8.23191 45.9227 13.3834 57.1898C19.245 69.9752 31.1631 78.1087 45.281 78.9304C46.0607 78.9722 46.8264 79 47.5922 79C60.7633 79 72.5422 72.4124 79.4341 61.0617C86.8133 48.9031 86.8551 34.4187 79.5594 22.3019L79.5733 22.288ZM72.8903 64.8778C65.8034 72.677 55.6397 76.716 45.0165 75.95C34.3654 75.1839 24.856 69.7384 18.9248 60.992C11.6848 50.3097 10.9051 37.1067 16.8085 25.6723C22.6979 14.2659 33.878 7.30219 46.7012 7.02364C46.9656 7.02364 47.2163 7.02364 47.4808 7.02364C61.1532 7.02364 73.0991 14.7115 78.7937 27.2322C84.6134 40.0314 82.3579 54.4601 72.8903 64.8917V64.8778Z" fill="white"/>
<path d="M73.3136 20.3346C65.2787 12.1653 53.8163 9.10179 42.6629 12.1653C31.5235 15.215 23.3621 23.6189 20.8055 34.6585C18.2349 45.7533 21.9012 56.8619 30.5963 64.3826C36.4119 69.3919 43.5478 72 50.8945 72C54.5186 72 58.1849 71.3652 61.767 70.068C71.5859 66.5216 78.8482 58.3661 81.2081 48.2786C83.554 38.1911 80.6181 27.7449 73.3277 20.3346H73.3136ZM78.8342 38.274C78.6235 37.6392 78.497 36.9493 78.3565 36.2179C78.1739 35.3071 77.9913 34.3825 77.6683 33.4442C74.9009 25.744 68.341 20.0724 60.1234 18.2785C51.8777 16.4845 43.4495 18.9133 37.5918 24.7918C31.2144 31.181 29.0792 40.1231 31.8746 48.7202C34.656 57.2621 41.6093 63.2925 50.5011 64.8519C52.0463 65.1278 53.5775 65.252 55.0664 65.252C66.5289 65.252 76.0809 57.4691 78.7218 45.4083C78.5673 46.4019 78.3847 47.3955 78.1177 48.389C75.6736 57.6899 68.6079 64.9346 59.2104 67.7773C49.8268 70.6063 39.8393 68.5087 32.4927 62.161C24.4719 55.2336 21.2551 44.9806 23.8959 34.7275C26.5368 24.4883 34.3188 16.9675 44.7137 14.6354C54.3219 12.4689 64.183 15.3254 71.0661 22.2803C75.4769 26.7376 78.1318 32.3401 78.8342 38.2602V38.274ZM74.1003 43.3798C73.8614 43.297 73.6226 43.1728 73.412 42.9796C72.9625 42.5795 72.6815 41.9722 72.6675 41.4203C72.6534 40.6337 73.3277 39.7091 74.0582 39.4331C74.1284 39.8196 74.2127 40.3301 74.2267 40.5095C74.2688 40.9787 74.2267 42.5794 74.1003 43.3936V43.3798ZM60.8539 44.1111C61.6405 46.4571 63.3963 48.3476 65.6861 49.3274C66.9082 49.838 68.1443 50.0863 69.4507 50.0312C67.1048 51.4939 64.1971 51.9493 61.3596 51.2456C57.5247 50.2796 54.7293 47.4645 53.9005 43.7109C52.6363 38.0394 55.9936 34.1065 59.2384 32.4782C60.601 31.7882 62.3007 31.319 64.1128 31.319C65.9249 31.319 67.6526 31.7468 69.3664 32.8232C66.2479 32.7818 63.2699 34.3135 61.6264 37.0597C60.3481 39.1986 60.0673 41.7653 60.8539 44.125V44.1111ZM51.8075 46.7883C53.5774 50.735 57.2437 53.5363 61.6124 54.2952C63.9302 54.6954 66.2761 54.4884 68.4112 53.757C65.4192 55.9236 61.7248 56.9723 57.8899 56.655C52.9874 56.2548 48.6891 53.7294 46.0903 49.6862C43.5618 45.7533 42.9719 40.9925 44.4609 36.5904C45.9358 32.2436 49.279 28.8213 53.6196 27.193C55.4316 26.5168 57.2999 26.1856 59.1542 26.1856C62.4131 26.1856 65.6018 27.193 68.2426 29.0559C68.032 28.9869 67.8212 28.9317 67.5964 28.8627C62.5395 27.4828 57.2719 29.0421 53.8584 32.9198C50.473 36.7836 49.6724 42.0826 51.7935 46.7745L51.8075 46.7883ZM63.9302 23.8811C58.0725 22.3355 52.0463 23.6327 47.3827 27.4138C43 30.9602 40.5698 36.2316 40.6822 41.8481C40.7946 47.4507 43.4495 52.5979 47.9445 55.9512C52.6784 59.4838 58.6626 60.5602 64.3797 58.918C66.262 58.3799 68.0038 57.5657 69.5771 56.5308C65.8827 60.0496 60.9522 62.1195 55.544 62.2852C47.8884 62.506 40.907 58.8767 36.8895 52.5427C32.8861 46.2501 32.577 38.5361 36.0607 31.9124C39.5443 25.2748 46.1325 21.066 53.6617 20.6382C54.0691 20.6106 54.4624 20.5968 54.8698 20.5968C60.3341 20.5968 65.4754 22.7357 69.3103 26.227C67.6808 25.192 65.8687 24.4054 63.9161 23.8811H63.9302ZM65.9811 46.1397C64.0706 44.884 63.1155 42.7312 63.4666 40.5233C63.8178 38.3292 65.3349 36.6456 67.5122 36.0108C68.0741 35.8452 68.65 35.7625 69.1979 35.7625C70.42 35.7625 71.6139 36.1489 72.6113 36.8526C70.6026 37.8048 69.4788 39.8196 69.7597 42.0137C69.9845 43.7938 71.0802 45.2427 72.6534 45.9465C72.4708 46.0845 72.3163 46.1949 72.2179 46.2501C70.2654 47.423 67.8774 47.3816 65.9811 46.1397Z" fill="white"/>
<path d="M102.234 60.5293H96.7951V21.061H102.234V60.5293Z" fill="white"/>
<path d="M141.011 21.061H146.45V62.4184L117.201 32.5261V60.6107H111.762V19.4242L141.011 49.5365V21.061Z" fill="white"/>
<path d="M184.919 21.061H190.472L171.931 62.1416L153.203 21.061H158.838L171.939 49.7319L178.348 35.6611L180.343 31.1907L181.865 27.7462L184.919 21.061Z" fill="white"/>
<path d="M197.419 21.061H228.085V26.5004H200.277L197.419 21.061ZM200.277 55.2609H228.085V60.6189H197.419L200.277 55.2609ZM200.277 43.5189V38.0795H228.085V43.5189H200.277Z" fill="white"/>
<path d="M266.861 33.9674C266.861 36.5568 266.161 38.9101 264.752 41.0353C263.343 43.1525 261.495 44.7322 259.199 45.7663L266.861 60.5293H261.397L254.321 46.8738C254.264 46.8738 254.199 46.8738 254.109 46.89C254.028 46.8982 253.963 46.9063 253.93 46.9063H242.799V60.5049H237.335V41.4343H253.93C255.998 41.4343 257.765 40.7096 259.215 39.2521C260.664 37.8026 261.397 36.0356 261.397 33.9674C261.397 31.8991 260.672 30.1321 259.215 28.6827C257.765 27.2332 255.998 26.5004 253.93 26.5004H237.335V21.061H253.93C256.259 21.061 258.425 21.631 260.412 22.7791C262.399 23.9272 263.97 25.4907 265.127 27.4857C266.283 29.4725 266.861 31.6385 266.861 33.9674Z" fill="white"/>
<path d="M286.425 26.5004C284.357 26.5004 282.549 27.2007 281.01 28.6094C279.471 30.0181 278.681 31.7281 278.624 33.7475C278.551 35.8565 279.251 37.6642 280.717 39.1706C282.191 40.6771 283.974 41.4343 286.083 41.4343H302.678V47.175C302.678 50.8719 301.367 54.0394 298.753 56.6696C296.14 59.2997 292.98 60.6107 289.275 60.6107H273.177V55.1469H288.966C291.238 55.1469 293.192 54.3407 294.804 52.7366C296.425 51.1243 297.231 49.1863 297.231 46.9063H286.075C283.705 46.9063 281.523 46.3119 279.528 45.1312C277.533 43.9505 275.962 42.3382 274.822 40.3188C273.682 38.2912 273.136 36.0926 273.169 33.7312C273.201 31.4187 273.836 29.2852 275.066 27.3309C276.295 25.3767 277.932 23.8458 279.968 22.7384C282.004 21.631 284.186 21.0772 286.515 21.0772H302.67V26.5167H286.409L286.425 26.5004Z" fill="white"/>
<path d="M317.433 60.5293H311.994V21.061H317.433V60.5293Z" fill="white"/>
<path d="M355.795 21.061H361.348L342.807 62.1416L324.07 21.061H329.705L342.807 49.7319L349.215 35.6611L351.21 31.1907L352.741 27.7462L355.795 21.061Z" fill="white"/>
<path d="M366.286 21.061H396.952V26.5004H369.144L366.286 21.061ZM369.152 55.2609H396.96V60.6189H366.294L369.152 55.2609ZM369.152 43.5189V38.0795H396.96V43.5189H369.152Z" fill="white"/>
</svg>
