<svg xmlns="http://www.w3.org/2000/svg" xmlns:v="https://svgstorm.com"
viewBox = "0 0 3555 720"
width="3555"
height="720">
<g fill="None" fill-opacity="0.0" stroke="#000000" stroke-opacity="1.00" stroke-width="0.3"><path d="
M 0.00 720.00 
L 3555.00 720.00
L 3555.00 0.00
L 0.00 0.00
L 0.00 720.00
M 409.00 33.00 
C 534.54 40.84 654.59 135.14 687.99 258.01 C 728.91 386.30 675.58 535.07 562.30 609.30 C 451.31 687.28 286.36 679.83 183.75 590.25 C 76.10 504.56 40.71 347.96 94.98 223.98 C 146.22 102.23 276.53 22.45 409.00 33.00
M 1219.00 421.00 
C 1219.00 344.67 1219.00 268.33 1219.00 192.00
C 1233.67 192.00 1248.33 192.00 1263.00 192.00
C 1263.00 303.33 1263.00 414.67 1263.00 526.00
C 1183.64 445.83 1104.99 365.24 1026.00 285.00
C 1026.00 360.33 1026.00 435.67 1026.00 511.00
C 1011.33 511.00 996.67 511.00 982.00 511.00
C 982.00 400.67 982.00 290.33 982.00 180.00
C 1062.12 259.11 1139.19 342.61 1219.00 421.00
M 913.00 192.00 
C 913.00 298.33 913.00 404.67 913.00 511.00
C 898.00 511.00 883.00 511.00 868.00 511.00
C 868.00 404.67 868.00 298.33 868.00 192.00
C 883.00 192.00 898.00 192.00 913.00 192.00
M 1468.00 422.00 
C 1488.72 386.79 1503.19 345.40 1521.92 307.92 C 1539.20 269.26 1556.55 230.60 1574.00 192.00
C 1589.00 192.00 1604.00 192.00 1619.00 192.00
C 1569.98 302.51 1518.59 412.49 1470.00 523.00
C 1417.77 413.82 1368.08 302.48 1318.00 192.00
C 1333.11 192.83 1349.34 190.33 1363.74 193.26 C 1398.32 269.59 1434.20 345.40 1468.00 422.00
M 1910.00 192.00 
C 1910.00 206.67 1910.00 221.33 1910.00 236.00
C 1845.00 236.00 1780.00 236.00 1715.00 236.00 C 1701.44 234.43 1680.89 242.35 1678.08 223.92 C 1671.39 213.74 1667.40 202.26 1661.00 192.00
C 1743.99 192.00 1827.01 192.00 1910.00 192.00
M 2154.00 391.00 
C 2173.15 431.30 2195.58 470.70 2215.00 511.00
C 2200.67 511.00 2186.33 511.00 2172.00 511.00 C 2155.19 484.05 2142.43 453.97 2127.08 425.92 C 2120.22 418.26 2119.89 401.14 2108.00 401.00 C 2079.00 401.00 2050.00 401.00 2021.00 401.00
C 2021.00 437.33 2021.00 473.67 2021.00 510.00
C 2006.00 510.00 1991.00 510.00 1976.00 510.00
C 1976.00 458.67 1976.00 407.33 1976.00 356.00
C 2018.34 356.00 2060.66 356.00 2103.00 356.00 C 2138.15 361.33 2172.63 331.35 2171.00 296.00 C 2172.60 261.12 2138.84 231.02 2104.00 236.00 C 2061.33 236.00 2018.67 236.00 1976.00 236.00
C 1976.00 221.33 1976.00 206.67 1976.00 192.00
C 2017.67 192.00 2059.33 192.00 2101.00 192.00 C 2170.82 183.01 2233.13 256.37 2212.07 323.07 C 2204.33 352.28 2182.58 379.62 2154.00 391.00
M 2521.00 192.00 
C 2521.00 206.67 2521.00 221.33 2521.00 236.00
C 2478.67 236.00 2436.33 236.00 2394.00 236.00 C 2359.66 232.19 2325.65 261.39 2326.00 296.00 C 2324.87 330.61 2358.37 360.61 2393.00 356.00 C 2435.67 356.00 2478.33 356.00 2521.00 356.00
C 2526.66 410.18 2517.66 470.87 2465.92 497.92 C 2410.52 523.45 2342.99 505.74 2282.00 511.00
C 2282.00 496.33 2282.00 481.67 2282.00 467.00
C 2325.34 467.00 2368.67 467.00 2412.00 467.00 C 2446.05 467.16 2478.56 435.66 2477.00 401.00
C 2416.81 398.55 2343.71 415.41 2303.75 360.25 C 2267.96 316.05 2278.12 244.39 2326.25 212.25 C 2381.78 175.25 2456.28 198.54 2521.00 192.00
M 2633.00 192.00 
C 2633.00 298.33 2633.00 404.67 2633.00 511.00
C 2618.33 511.00 2603.67 511.00 2589.00 511.00
C 2588.99 404.67 2589.01 298.33 2589.00 192.00
C 2603.66 192.00 2618.34 192.00 2633.00 192.00
M 2729.00 192.00 
C 2746.67 230.21 2763.96 269.05 2781.78 307.22 C 2800.09 345.14 2815.80 386.19 2836.00 422.00
C 2869.89 345.85 2905.02 270.10 2938.92 193.92 C 2952.61 189.47 2969.92 193.26 2985.00 192.00
C 2960.12 247.43 2934.71 302.58 2910.08 358.08 C 2884.15 412.56 2860.82 470.20 2834.00 523.00
C 2784.70 412.38 2733.57 302.25 2683.00 192.00
C 2698.33 192.00 2713.67 192.00 2729.00 192.00
M 3275.00 192.00 
C 3275.00 206.67 3275.00 221.33 3275.00 236.00
C 3210.33 236.00 3145.67 236.00 3081.00 236.00 C 3067.44 234.43 3046.89 242.35 3044.08 223.92 C 3037.86 213.58 3032.26 202.72 3027.00 192.00
C 3109.67 192.00 3192.33 192.00 3275.00 192.00
M 1910.00 329.00 
C 1910.00 343.67 1910.00 358.33 1910.00 373.00
C 1834.67 373.00 1759.33 373.00 1684.00 373.00
C 1684.00 358.33 1684.00 343.67 1684.00 329.00
C 1759.33 329.00 1834.67 329.00 1910.00 329.00
M 3275.00 329.00 
C 3275.00 343.67 3275.00 358.33 3275.00 373.00
C 3200.01 373.00 3124.99 373.00 3050.00 373.00
C 3050.00 358.33 3050.00 343.67 3050.00 329.00
C 3125.01 329.00 3200.00 329.00 3275.00 329.00
M 1910.00 468.00 
C 1910.00 482.33 1910.00 496.67 1910.00 511.00
C 1827.00 511.00 1743.99 511.00 1661.00 511.00
C 1666.98 500.76 1672.18 490.21 1677.77 479.77 C 1681.44 461.90 1701.26 469.47 1715.00 468.00 C 1780.00 468.00 1845.00 468.00 1910.00 468.00
M 3275.00 468.00 
C 3275.00 482.33 3275.00 496.67 3275.00 511.00
C 3192.33 511.00 3109.67 511.00 3027.00 511.00
C 3032.26 500.36 3038.62 490.46 3043.77 479.77 C 3047.19 461.80 3067.32 469.53 3081.00 468.00 C 3145.67 468.00 3210.33 468.00 3275.00 468.00 Z"/>
</g>
<g fill="None" fill-opacity="0.0" stroke="#EFF0F2" stroke-opacity="1.00" stroke-width="0.3"><path d="
M 409.00 33.00 
C 276.53 22.45 146.22 102.23 94.98 223.98 C 40.71 347.96 76.10 504.56 183.75 590.25 C 286.36 679.83 451.31 687.28 562.30 609.30 C 675.58 535.07 728.91 386.30 687.99 258.01 C 654.59 135.14 534.54 40.84 409.00 33.00
M 399.00 44.00 
C 559.95 47.76 700.87 198.02 690.00 361.00 C 686.71 522.65 535.09 663.20 372.33 651.67 C 210.88 648.86 70.30 497.70 81.33 335.33 C 84.22 173.10 236.06 33.43 399.00 44.00 Z"/>
</g>
<g fill="None" fill-opacity="0.0" stroke="#000000" stroke-opacity="1.00" stroke-width="0.3"><path d="
M 399.00 44.00 
C 236.06 33.43 84.22 173.10 81.33 335.33 C 70.30 497.70 210.88 648.86 372.33 651.67 C 535.09 663.20 686.71 522.65 690.00 361.00 C 700.87 198.02 559.95 47.76 399.00 44.00
M 435.00 91.00 
C 570.65 99.24 686.03 229.66 672.00 368.00 C 664.20 504.35 532.42 619.23 394.33 604.67 C 258.67 597.36 142.90 466.06 157.93 328.93 C 163.99 191.48 296.86 77.53 435.00 91.00 Z"/>
</g>
<g fill="None" fill-opacity="0.0" stroke="#EFF0F2" stroke-opacity="1.00" stroke-width="0.3"><path d="
M 435.00 91.00 
C 296.86 77.53 163.99 191.48 157.93 328.93 C 142.90 466.06 258.67 597.36 394.33 604.67 C 532.42 619.23 664.20 504.35 672.00 368.00 C 686.03 229.66 570.65 99.24 435.00 91.00
M 425.00 102.00 
C 555.16 104.98 669.56 226.09 661.00 358.00 C 658.47 489.16 535.92 602.56 404.00 594.00 C 274.11 591.14 159.53 469.69 168.99 338.99 C 169.61 207.08 293.31 94.01 425.00 102.00 Z"/>
</g>
<g fill="None" fill-opacity="0.0" stroke="#000000" stroke-opacity="1.00" stroke-width="0.3"><path d="
M 425.00 102.00 
C 293.31 94.01 169.61 207.08 168.99 338.99 C 159.53 469.69 274.11 591.14 404.00 594.00 C 535.92 602.56 658.47 489.16 661.00 358.00 C 669.56 226.09 555.16 104.98 425.00 102.00
M 465.00 149.00 
C 536.85 155.15 605.97 204.69 632.77 273.23 C 641.53 290.93 640.88 312.09 649.77 329.23 C 663.71 348.37 646.24 367.54 643.22 386.22 C 624.95 503.38 487.24 580.12 377.32 534.68 C 265.96 496.69 211.97 350.84 273.75 250.75 C 310.73 182.51 387.67 142.91 465.00 149.00 Z"/>
</g>
<g fill="None" fill-opacity="0.0" stroke="#EFF0F2" stroke-opacity="1.00" stroke-width="0.3"><path d="
M 465.00 149.00 
C 387.67 142.91 310.73 182.51 273.75 250.75 C 211.97 350.84 265.96 496.69 377.32 534.68 C 487.24 580.12 624.95 503.38 643.22 386.22 C 646.24 367.54 663.71 348.37 649.77 329.23 C 640.88 312.09 641.53 290.93 632.77 273.23 C 605.97 204.69 536.85 155.15 465.00 149.00
M 632.00 313.00 
C 611.48 213.47 479.65 161.69 398.25 224.25 C 312.86 278.58 312.36 416.64 397.70 471.30 C 478.26 534.14 612.61 483.69 631.00 383.00
C 627.33 420.92 604.76 456.93 576.75 484.75 C 515.41 544.24 412.87 552.52 342.92 504.08 C 233.85 436.54 232.90 261.59 341.75 192.75 C 411.47 143.98 513.64 151.56 575.75 210.25 C 604.86 238.46 625.56 273.78 632.00 313.00
M 602.00 274.00 
C 562.74 232.05 490.27 231.05 450.25 272.25 C 408.50 311.51 408.31 384.47 450.25 423.75 C 490.06 465.10 562.87 463.90 602.00 422.00
C 561.24 494.12 453.57 508.41 393.25 453.75 C 329.49 401.13 329.28 295.67 392.75 242.75 C 452.99 187.68 560.98 201.82 602.00 274.00
M 596.00 285.00 
C 553.72 266.56 499.97 300.96 502.00 348.00 C 499.90 394.95 553.69 429.71 596.00 411.00
C 562.21 451.22 496.33 453.04 459.25 416.75 C 421.09 381.27 420.53 315.09 459.08 280.08 C 495.57 242.44 562.14 244.99 596.00 285.00
M 612.00 311.00 
C 572.97 316.75 571.73 379.36 612.00 384.00
C 583.18 424.54 511.53 398.44 513.07 348.93 C 510.39 298.88 580.71 271.29 612.00 311.00
M 617.00 323.00 
C 621.11 338.95 621.12 357.03 617.00 373.00
C 585.93 373.70 585.98 322.38 617.00 323.00 Z"/>
</g>
<g fill="None" fill-opacity="0.0" stroke="#000000" stroke-opacity="1.00" stroke-width="0.3"><path d="
M 632.00 313.00 
C 625.56 273.78 604.86 238.46 575.75 210.25 C 513.64 151.56 411.47 143.98 341.75 192.75 C 232.90 261.59 233.85 436.54 342.92 504.08 C 412.87 552.52 515.41 544.24 576.75 484.75 C 604.76 456.93 627.33 420.92 631.00 383.00
C 612.61 483.69 478.26 534.14 397.70 471.30 C 312.36 416.64 312.86 278.58 398.25 224.25 C 479.65 161.69 611.48 213.47 632.00 313.00 Z"/>
</g>
<g fill="None" fill-opacity="0.0" stroke="#EFF0F2" stroke-opacity="1.00" stroke-width="0.3"><path d="
M 1219.00 421.00 
C 1139.19 342.61 1062.12 259.11 982.00 180.00
C 982.00 290.33 982.00 400.67 982.00 511.00
C 996.67 511.00 1011.33 511.00 1026.00 511.00
C 1026.00 435.67 1026.00 360.33 1026.00 285.00
C 1104.99 365.24 1183.64 445.83 1263.00 526.00
C 1263.00 414.67 1263.00 303.33 1263.00 192.00
C 1248.33 192.00 1233.67 192.00 1219.00 192.00
C 1219.00 268.33 1219.00 344.67 1219.00 421.00 Z"/>
</g>
<g fill="None" fill-opacity="0.0" stroke="#EFF0F2" stroke-opacity="1.00" stroke-width="0.3"><path d="
M 913.00 192.00 
C 898.00 192.00 883.00 192.00 868.00 192.00
C 868.00 298.33 868.00 404.67 868.00 511.00
C 883.00 511.00 898.00 511.00 913.00 511.00
C 913.00 404.67 913.00 298.33 913.00 192.00 Z"/>
</g>
<g fill="None" fill-opacity="0.0" stroke="#EFF0F2" stroke-opacity="1.00" stroke-width="0.3"><path d="
M 1468.00 422.00 
C 1434.20 345.40 1398.32 269.59 1363.74 193.26 C 1349.34 190.33 1333.11 192.83 1318.00 192.00
C 1368.08 302.48 1417.77 413.82 1470.00 523.00
C 1518.59 412.49 1569.98 302.51 1619.00 192.00
C 1604.00 192.00 1589.00 192.00 1574.00 192.00
C 1556.55 230.60 1539.20 269.26 1521.92 307.92 C 1503.19 345.40 1488.72 386.79 1468.00 422.00 Z"/>
</g>
<g fill="None" fill-opacity="0.0" stroke="#EFF0F2" stroke-opacity="1.00" stroke-width="0.3"><path d="
M 1910.00 192.00 
C 1827.01 192.00 1743.99 192.00 1661.00 192.00
C 1667.40 202.26 1671.39 213.74 1678.08 223.92 C 1680.89 242.35 1701.44 234.43 1715.00 236.00 C 1780.00 236.00 1845.00 236.00 1910.00 236.00
C 1910.00 221.33 1910.00 206.67 1910.00 192.00 Z"/>
</g>
<g fill="None" fill-opacity="0.0" stroke="#EFF0F2" stroke-opacity="1.00" stroke-width="0.3"><path d="
M 2154.00 391.00 
C 2182.58 379.62 2204.33 352.28 2212.07 323.07 C 2233.13 256.37 2170.82 183.01 2101.00 192.00 C 2059.33 192.00 2017.67 192.00 1976.00 192.00
C 1976.00 206.67 1976.00 221.33 1976.00 236.00
C 2018.67 236.00 2061.33 236.00 2104.00 236.00 C 2138.84 231.02 2172.60 261.12 2171.00 296.00 C 2172.63 331.35 2138.15 361.33 2103.00 356.00 C 2060.66 356.00 2018.34 356.00 1976.00 356.00
C 1976.00 407.33 1976.00 458.67 1976.00 510.00
C 1991.00 510.00 2006.00 510.00 2021.00 510.00
C 2021.00 473.67 2021.00 437.33 2021.00 401.00
C 2050.00 401.00 2079.00 401.00 2108.00 401.00 C 2119.89 401.14 2120.22 418.26 2127.08 425.92 C 2142.43 453.97 2155.19 484.05 2172.00 511.00 C 2186.33 511.00 2200.67 511.00 2215.00 511.00
C 2195.58 470.70 2173.15 431.30 2154.00 391.00 Z"/>
</g>
<g fill="None" fill-opacity="0.0" stroke="#EFF0F2" stroke-opacity="1.00" stroke-width="0.3"><path d="
M 2521.00 192.00 
C 2456.28 198.54 2381.78 175.25 2326.25 212.25 C 2278.12 244.39 2267.96 316.05 2303.75 360.25 C 2343.71 415.41 2416.81 398.55 2477.00 401.00
C 2478.56 435.66 2446.05 467.16 2412.00 467.00 C 2368.67 467.00 2325.34 467.00 2282.00 467.00
C 2282.00 481.67 2282.00 496.33 2282.00 511.00
C 2342.99 505.74 2410.52 523.45 2465.92 497.92 C 2517.66 470.87 2526.66 410.18 2521.00 356.00
C 2478.33 356.00 2435.67 356.00 2393.00 356.00 C 2358.37 360.61 2324.87 330.61 2326.00 296.00 C 2325.65 261.39 2359.66 232.19 2394.00 236.00 C 2436.33 236.00 2478.67 236.00 2521.00 236.00
C 2521.00 221.33 2521.00 206.67 2521.00 192.00 Z"/>
</g>
<g fill="None" fill-opacity="0.0" stroke="#EFF0F2" stroke-opacity="1.00" stroke-width="0.3"><path d="
M 2633.00 192.00 
C 2618.34 192.00 2603.66 192.00 2589.00 192.00
C 2589.01 298.33 2588.99 404.67 2589.00 511.00
C 2603.67 511.00 2618.33 511.00 2633.00 511.00
C 2633.00 404.67 2633.00 298.33 2633.00 192.00 Z"/>
</g>
<g fill="None" fill-opacity="0.0" stroke="#EFF0F2" stroke-opacity="1.00" stroke-width="0.3"><path d="
M 2729.00 192.00 
C 2713.67 192.00 2698.33 192.00 2683.00 192.00
C 2733.57 302.25 2784.70 412.38 2834.00 523.00
C 2860.82 470.20 2884.15 412.56 2910.08 358.08 C 2934.71 302.58 2960.12 247.43 2985.00 192.00
C 2969.92 193.26 2952.61 189.47 2938.92 193.92 C 2905.02 270.10 2869.89 345.85 2836.00 422.00
C 2815.80 386.19 2800.09 345.14 2781.78 307.22 C 2763.96 269.05 2746.67 230.21 2729.00 192.00 Z"/>
</g>
<g fill="None" fill-opacity="0.0" stroke="#EFF0F2" stroke-opacity="1.00" stroke-width="0.3"><path d="
M 3275.00 192.00 
C 3192.33 192.00 3109.67 192.00 3027.00 192.00
C 3032.26 202.72 3037.86 213.58 3044.08 223.92 C 3046.89 242.35 3067.44 234.43 3081.00 236.00 C 3145.67 236.00 3210.33 236.00 3275.00 236.00
C 3275.00 221.33 3275.00 206.67 3275.00 192.00 Z"/>
</g>
<g fill="None" fill-opacity="0.0" stroke="#000000" stroke-opacity="1.00" stroke-width="0.3"><path d="
M 602.00 274.00 
C 560.98 201.82 452.99 187.68 392.75 242.75 C 329.28 295.67 329.49 401.13 393.25 453.75 C 453.57 508.41 561.24 494.12 602.00 422.00
C 562.87 463.90 490.06 465.10 450.25 423.75 C 408.31 384.47 408.50 311.51 450.25 272.25 C 490.27 231.05 562.74 232.05 602.00 274.00 Z"/>
</g>
<g fill="None" fill-opacity="0.0" stroke="#000000" stroke-opacity="1.00" stroke-width="0.3"><path d="
M 596.00 285.00 
C 562.14 244.99 495.57 242.44 459.08 280.08 C 420.53 315.09 421.09 381.27 459.25 416.75 C 496.33 453.04 562.21 451.22 596.00 411.00
C 553.69 429.71 499.90 394.95 502.00 348.00 C 499.97 300.96 553.72 266.56 596.00 285.00 Z"/>
</g>
<g fill="None" fill-opacity="0.0" stroke="#000000" stroke-opacity="1.00" stroke-width="0.3"><path d="
M 612.00 311.00 
C 580.71 271.29 510.39 298.88 513.07 348.93 C 511.53 398.44 583.18 424.54 612.00 384.00
C 571.73 379.36 572.97 316.75 612.00 311.00 Z"/>
</g>
<g fill="None" fill-opacity="0.0" stroke="#000000" stroke-opacity="1.00" stroke-width="0.3"><path d="
M 617.00 323.00 
C 585.98 322.38 585.93 373.70 617.00 373.00
C 621.12 357.03 621.11 338.95 617.00 323.00 Z"/>
</g>
<g fill="None" fill-opacity="0.0" stroke="#EFF0F2" stroke-opacity="1.00" stroke-width="0.3"><path d="
M 1910.00 329.00 
C 1834.67 329.00 1759.33 329.00 1684.00 329.00
C 1684.00 343.67 1684.00 358.33 1684.00 373.00
C 1759.33 373.00 1834.67 373.00 1910.00 373.00
C 1910.00 358.33 1910.00 343.67 1910.00 329.00 Z"/>
</g>
<g fill="None" fill-opacity="0.0" stroke="#EFF0F2" stroke-opacity="1.00" stroke-width="0.3"><path d="
M 3275.00 329.00 
C 3200.00 329.00 3125.01 329.00 3050.00 329.00
C 3050.00 343.67 3050.00 358.33 3050.00 373.00
C 3124.99 373.00 3200.01 373.00 3275.00 373.00
C 3275.00 358.33 3275.00 343.67 3275.00 329.00 Z"/>
</g>
<g fill="None" fill-opacity="0.0" stroke="#EFF0F2" stroke-opacity="1.00" stroke-width="0.3"><path d="
M 1910.00 468.00 
C 1845.00 468.00 1780.00 468.00 1715.00 468.00 C 1701.26 469.47 1681.44 461.90 1677.77 479.77 C 1672.18 490.21 1666.98 500.76 1661.00 511.00
C 1743.99 511.00 1827.00 511.00 1910.00 511.00
C 1910.00 496.67 1910.00 482.33 1910.00 468.00 Z"/>
</g>
<g fill="None" fill-opacity="0.0" stroke="#EFF0F2" stroke-opacity="1.00" stroke-width="0.3"><path d="
M 3275.00 468.00 
C 3210.33 468.00 3145.67 468.00 3081.00 468.00 C 3067.32 469.53 3047.19 461.80 3043.77 479.77 C 3038.62 490.46 3032.26 500.36 3027.00 511.00
C 3109.67 511.00 3192.33 511.00 3275.00 511.00
C 3275.00 496.67 3275.00 482.33 3275.00 468.00 Z"/>
</g>
<g fill="#000000" fill-opacity="1.00" stroke="None">
<path d="
M 0.00 720.00 
L 3555.00 720.00
L 3555.00 0.00
L 0.00 0.00
L 0.00 720.00
M 409.00 33.00 
C 534.54 40.84 654.59 135.14 687.99 258.01 C 728.91 386.30 675.58 535.07 562.30 609.30 C 451.31 687.28 286.36 679.83 183.75 590.25 C 76.10 504.56 40.71 347.96 94.98 223.98 C 146.22 102.23 276.53 22.45 409.00 33.00
M 1219.00 421.00 
C 1219.00 344.67 1219.00 268.33 1219.00 192.00
C 1233.67 192.00 1248.33 192.00 1263.00 192.00
C 1263.00 303.33 1263.00 414.67 1263.00 526.00
C 1183.64 445.83 1104.99 365.24 1026.00 285.00
C 1026.00 360.33 1026.00 435.67 1026.00 511.00
C 1011.33 511.00 996.67 511.00 982.00 511.00
C 982.00 400.67 982.00 290.33 982.00 180.00
C 1062.12 259.11 1139.19 342.61 1219.00 421.00
M 913.00 192.00 
C 913.00 298.33 913.00 404.67 913.00 511.00
C 898.00 511.00 883.00 511.00 868.00 511.00
C 868.00 404.67 868.00 298.33 868.00 192.00
C 883.00 192.00 898.00 192.00 913.00 192.00
M 1468.00 422.00 
C 1488.72 386.79 1503.19 345.40 1521.92 307.92 C 1539.20 269.26 1556.55 230.60 1574.00 192.00
C 1589.00 192.00 1604.00 192.00 1619.00 192.00
C 1569.98 302.51 1518.59 412.49 1470.00 523.00
C 1417.77 413.82 1368.08 302.48 1318.00 192.00
C 1333.11 192.83 1349.34 190.33 1363.74 193.26 C 1398.32 269.59 1434.20 345.40 1468.00 422.00
M 1910.00 192.00 
C 1910.00 206.67 1910.00 221.33 1910.00 236.00
C 1845.00 236.00 1780.00 236.00 1715.00 236.00 C 1701.44 234.43 1680.89 242.35 1678.08 223.92 C 1671.39 213.74 1667.40 202.26 1661.00 192.00
C 1743.99 192.00 1827.01 192.00 1910.00 192.00
M 2154.00 391.00 
C 2173.15 431.30 2195.58 470.70 2215.00 511.00
C 2200.67 511.00 2186.33 511.00 2172.00 511.00 C 2155.19 484.05 2142.43 453.97 2127.08 425.92 C 2120.22 418.26 2119.89 401.14 2108.00 401.00 C 2079.00 401.00 2050.00 401.00 2021.00 401.00
C 2021.00 437.33 2021.00 473.67 2021.00 510.00
C 2006.00 510.00 1991.00 510.00 1976.00 510.00
C 1976.00 458.67 1976.00 407.33 1976.00 356.00
C 2018.34 356.00 2060.66 356.00 2103.00 356.00 C 2138.15 361.33 2172.63 331.35 2171.00 296.00 C 2172.60 261.12 2138.84 231.02 2104.00 236.00 C 2061.33 236.00 2018.67 236.00 1976.00 236.00
C 1976.00 221.33 1976.00 206.67 1976.00 192.00
C 2017.67 192.00 2059.33 192.00 2101.00 192.00 C 2170.82 183.01 2233.13 256.37 2212.07 323.07 C 2204.33 352.28 2182.58 379.62 2154.00 391.00
M 2521.00 192.00 
C 2521.00 206.67 2521.00 221.33 2521.00 236.00
C 2478.67 236.00 2436.33 236.00 2394.00 236.00 C 2359.66 232.19 2325.65 261.39 2326.00 296.00 C 2324.87 330.61 2358.37 360.61 2393.00 356.00 C 2435.67 356.00 2478.33 356.00 2521.00 356.00
C 2526.66 410.18 2517.66 470.87 2465.92 497.92 C 2410.52 523.45 2342.99 505.74 2282.00 511.00
C 2282.00 496.33 2282.00 481.67 2282.00 467.00
C 2325.34 467.00 2368.67 467.00 2412.00 467.00 C 2446.05 467.16 2478.56 435.66 2477.00 401.00
C 2416.81 398.55 2343.71 415.41 2303.75 360.25 C 2267.96 316.05 2278.12 244.39 2326.25 212.25 C 2381.78 175.25 2456.28 198.54 2521.00 192.00
M 2633.00 192.00 
C 2633.00 298.33 2633.00 404.67 2633.00 511.00
C 2618.33 511.00 2603.67 511.00 2589.00 511.00
C 2588.99 404.67 2589.01 298.33 2589.00 192.00
C 2603.66 192.00 2618.34 192.00 2633.00 192.00
M 2729.00 192.00 
C 2746.67 230.21 2763.96 269.05 2781.78 307.22 C 2800.09 345.14 2815.80 386.19 2836.00 422.00
C 2869.89 345.85 2905.02 270.10 2938.92 193.92 C 2952.61 189.47 2969.92 193.26 2985.00 192.00
C 2960.12 247.43 2934.71 302.58 2910.08 358.08 C 2884.15 412.56 2860.82 470.20 2834.00 523.00
C 2784.70 412.38 2733.57 302.25 2683.00 192.00
C 2698.33 192.00 2713.67 192.00 2729.00 192.00
M 3275.00 192.00 
C 3275.00 206.67 3275.00 221.33 3275.00 236.00
C 3210.33 236.00 3145.67 236.00 3081.00 236.00 C 3067.44 234.43 3046.89 242.35 3044.08 223.92 C 3037.86 213.58 3032.26 202.72 3027.00 192.00
C 3109.67 192.00 3192.33 192.00 3275.00 192.00
M 1910.00 329.00 
C 1910.00 343.67 1910.00 358.33 1910.00 373.00
C 1834.67 373.00 1759.33 373.00 1684.00 373.00
C 1684.00 358.33 1684.00 343.67 1684.00 329.00
C 1759.33 329.00 1834.67 329.00 1910.00 329.00
M 3275.00 329.00 
C 3275.00 343.67 3275.00 358.33 3275.00 373.00
C 3200.01 373.00 3124.99 373.00 3050.00 373.00
C 3050.00 358.33 3050.00 343.67 3050.00 329.00
C 3125.01 329.00 3200.00 329.00 3275.00 329.00
M 1910.00 468.00 
C 1910.00 482.33 1910.00 496.67 1910.00 511.00
C 1827.00 511.00 1743.99 511.00 1661.00 511.00
C 1666.98 500.76 1672.18 490.21 1677.77 479.77 C 1681.44 461.90 1701.26 469.47 1715.00 468.00 C 1780.00 468.00 1845.00 468.00 1910.00 468.00
M 3275.00 468.00 
C 3275.00 482.33 3275.00 496.67 3275.00 511.00
C 3192.33 511.00 3109.67 511.00 3027.00 511.00
C 3032.26 500.36 3038.62 490.46 3043.77 479.77 C 3047.19 461.80 3067.32 469.53 3081.00 468.00 C 3145.67 468.00 3210.33 468.00 3275.00 468.00 Z"/>
</g>
<g fill="#EFF0F2" fill-opacity="1.00" stroke="None">
<path d="
M 409.00 33.00 
C 276.53 22.45 146.22 102.23 94.98 223.98 C 40.71 347.96 76.10 504.56 183.75 590.25 C 286.36 679.83 451.31 687.28 562.30 609.30 C 675.58 535.07 728.91 386.30 687.99 258.01 C 654.59 135.14 534.54 40.84 409.00 33.00
M 399.00 44.00 
C 559.95 47.76 700.87 198.02 690.00 361.00 C 686.71 522.65 535.09 663.20 372.33 651.67 C 210.88 648.86 70.30 497.70 81.33 335.33 C 84.22 173.10 236.06 33.43 399.00 44.00 Z"/>
</g>
<g fill="#000000" fill-opacity="1.00" stroke="None">
<path d="
M 399.00 44.00 
C 236.06 33.43 84.22 173.10 81.33 335.33 C 70.30 497.70 210.88 648.86 372.33 651.67 C 535.09 663.20 686.71 522.65 690.00 361.00 C 700.87 198.02 559.95 47.76 399.00 44.00
M 435.00 91.00 
C 570.65 99.24 686.03 229.66 672.00 368.00 C 664.20 504.35 532.42 619.23 394.33 604.67 C 258.67 597.36 142.90 466.06 157.93 328.93 C 163.99 191.48 296.86 77.53 435.00 91.00 Z"/>
</g>
<g fill="#EFF0F2" fill-opacity="1.00" stroke="None">
<path d="
M 435.00 91.00 
C 296.86 77.53 163.99 191.48 157.93 328.93 C 142.90 466.06 258.67 597.36 394.33 604.67 C 532.42 619.23 664.20 504.35 672.00 368.00 C 686.03 229.66 570.65 99.24 435.00 91.00
M 425.00 102.00 
C 555.16 104.98 669.56 226.09 661.00 358.00 C 658.47 489.16 535.92 602.56 404.00 594.00 C 274.11 591.14 159.53 469.69 168.99 338.99 C 169.61 207.08 293.31 94.01 425.00 102.00 Z"/>
</g>
<g fill="#000000" fill-opacity="1.00" stroke="None">
<path d="
M 425.00 102.00 
C 293.31 94.01 169.61 207.08 168.99 338.99 C 159.53 469.69 274.11 591.14 404.00 594.00 C 535.92 602.56 658.47 489.16 661.00 358.00 C 669.56 226.09 555.16 104.98 425.00 102.00
M 465.00 149.00 
C 536.85 155.15 605.97 204.69 632.77 273.23 C 641.53 290.93 640.88 312.09 649.77 329.23 C 663.71 348.37 646.24 367.54 643.22 386.22 C 624.95 503.38 487.24 580.12 377.32 534.68 C 265.96 496.69 211.97 350.84 273.75 250.75 C 310.73 182.51 387.67 142.91 465.00 149.00 Z"/>
</g>
<g fill="#EFF0F2" fill-opacity="1.00" stroke="None">
<path d="
M 465.00 149.00 
C 387.67 142.91 310.73 182.51 273.75 250.75 C 211.97 350.84 265.96 496.69 377.32 534.68 C 487.24 580.12 624.95 503.38 643.22 386.22 C 646.24 367.54 663.71 348.37 649.77 329.23 C 640.88 312.09 641.53 290.93 632.77 273.23 C 605.97 204.69 536.85 155.15 465.00 149.00
M 632.00 313.00 
C 611.48 213.47 479.65 161.69 398.25 224.25 C 312.86 278.58 312.36 416.64 397.70 471.30 C 478.26 534.14 612.61 483.69 631.00 383.00
C 627.33 420.92 604.76 456.93 576.75 484.75 C 515.41 544.24 412.87 552.52 342.92 504.08 C 233.85 436.54 232.90 261.59 341.75 192.75 C 411.47 143.98 513.64 151.56 575.75 210.25 C 604.86 238.46 625.56 273.78 632.00 313.00
M 602.00 274.00 
C 562.74 232.05 490.27 231.05 450.25 272.25 C 408.50 311.51 408.31 384.47 450.25 423.75 C 490.06 465.10 562.87 463.90 602.00 422.00
C 561.24 494.12 453.57 508.41 393.25 453.75 C 329.49 401.13 329.28 295.67 392.75 242.75 C 452.99 187.68 560.98 201.82 602.00 274.00
M 596.00 285.00 
C 553.72 266.56 499.97 300.96 502.00 348.00 C 499.90 394.95 553.69 429.71 596.00 411.00
C 562.21 451.22 496.33 453.04 459.25 416.75 C 421.09 381.27 420.53 315.09 459.08 280.08 C 495.57 242.44 562.14 244.99 596.00 285.00
M 612.00 311.00 
C 572.97 316.75 571.73 379.36 612.00 384.00
C 583.18 424.54 511.53 398.44 513.07 348.93 C 510.39 298.88 580.71 271.29 612.00 311.00
M 617.00 323.00 
C 621.11 338.95 621.12 357.03 617.00 373.00
C 585.93 373.70 585.98 322.38 617.00 323.00 Z"/>
</g>
<g fill="#000000" fill-opacity="1.00" stroke="None">
<path d="
M 632.00 313.00 
C 625.56 273.78 604.86 238.46 575.75 210.25 C 513.64 151.56 411.47 143.98 341.75 192.75 C 232.90 261.59 233.85 436.54 342.92 504.08 C 412.87 552.52 515.41 544.24 576.75 484.75 C 604.76 456.93 627.33 420.92 631.00 383.00
C 612.61 483.69 478.26 534.14 397.70 471.30 C 312.36 416.64 312.86 278.58 398.25 224.25 C 479.65 161.69 611.48 213.47 632.00 313.00 Z"/>
</g>
<g fill="#EFF0F2" fill-opacity="1.00" stroke="None">
<path d="
M 1219.00 421.00 
C 1139.19 342.61 1062.12 259.11 982.00 180.00
C 982.00 290.33 982.00 400.67 982.00 511.00
C 996.67 511.00 1011.33 511.00 1026.00 511.00
C 1026.00 435.67 1026.00 360.33 1026.00 285.00
C 1104.99 365.24 1183.64 445.83 1263.00 526.00
C 1263.00 414.67 1263.00 303.33 1263.00 192.00
C 1248.33 192.00 1233.67 192.00 1219.00 192.00
C 1219.00 268.33 1219.00 344.67 1219.00 421.00 Z"/>
</g>
<g fill="#EFF0F2" fill-opacity="1.00" stroke="None">
<path d="
M 913.00 192.00 
C 898.00 192.00 883.00 192.00 868.00 192.00
C 868.00 298.33 868.00 404.67 868.00 511.00
C 883.00 511.00 898.00 511.00 913.00 511.00
C 913.00 404.67 913.00 298.33 913.00 192.00 Z"/>
</g>
<g fill="#EFF0F2" fill-opacity="1.00" stroke="None">
<path d="
M 1468.00 422.00 
C 1434.20 345.40 1398.32 269.59 1363.74 193.26 C 1349.34 190.33 1333.11 192.83 1318.00 192.00
C 1368.08 302.48 1417.77 413.82 1470.00 523.00
C 1518.59 412.49 1569.98 302.51 1619.00 192.00
C 1604.00 192.00 1589.00 192.00 1574.00 192.00
C 1556.55 230.60 1539.20 269.26 1521.92 307.92 C 1503.19 345.40 1488.72 386.79 1468.00 422.00 Z"/>
</g>
<g fill="#EFF0F2" fill-opacity="1.00" stroke="None">
<path d="
M 1910.00 192.00 
C 1827.01 192.00 1743.99 192.00 1661.00 192.00
C 1667.40 202.26 1671.39 213.74 1678.08 223.92 C 1680.89 242.35 1701.44 234.43 1715.00 236.00 C 1780.00 236.00 1845.00 236.00 1910.00 236.00
C 1910.00 221.33 1910.00 206.67 1910.00 192.00 Z"/>
</g>
<g fill="#EFF0F2" fill-opacity="1.00" stroke="None">
<path d="
M 2154.00 391.00 
C 2182.58 379.62 2204.33 352.28 2212.07 323.07 C 2233.13 256.37 2170.82 183.01 2101.00 192.00 C 2059.33 192.00 2017.67 192.00 1976.00 192.00
C 1976.00 206.67 1976.00 221.33 1976.00 236.00
C 2018.67 236.00 2061.33 236.00 2104.00 236.00 C 2138.84 231.02 2172.60 261.12 2171.00 296.00 C 2172.63 331.35 2138.15 361.33 2103.00 356.00 C 2060.66 356.00 2018.34 356.00 1976.00 356.00
C 1976.00 407.33 1976.00 458.67 1976.00 510.00
C 1991.00 510.00 2006.00 510.00 2021.00 510.00
C 2021.00 473.67 2021.00 437.33 2021.00 401.00
C 2050.00 401.00 2079.00 401.00 2108.00 401.00 C 2119.89 401.14 2120.22 418.26 2127.08 425.92 C 2142.43 453.97 2155.19 484.05 2172.00 511.00 C 2186.33 511.00 2200.67 511.00 2215.00 511.00
C 2195.58 470.70 2173.15 431.30 2154.00 391.00 Z"/>
</g>
<g fill="#EFF0F2" fill-opacity="1.00" stroke="None">
<path d="
M 2521.00 192.00 
C 2456.28 198.54 2381.78 175.25 2326.25 212.25 C 2278.12 244.39 2267.96 316.05 2303.75 360.25 C 2343.71 415.41 2416.81 398.55 2477.00 401.00
C 2478.56 435.66 2446.05 467.16 2412.00 467.00 C 2368.67 467.00 2325.34 467.00 2282.00 467.00
C 2282.00 481.67 2282.00 496.33 2282.00 511.00
C 2342.99 505.74 2410.52 523.45 2465.92 497.92 C 2517.66 470.87 2526.66 410.18 2521.00 356.00
C 2478.33 356.00 2435.67 356.00 2393.00 356.00 C 2358.37 360.61 2324.87 330.61 2326.00 296.00 C 2325.65 261.39 2359.66 232.19 2394.00 236.00 C 2436.33 236.00 2478.67 236.00 2521.00 236.00
C 2521.00 221.33 2521.00 206.67 2521.00 192.00 Z"/>
</g>
<g fill="#EFF0F2" fill-opacity="1.00" stroke="None">
<path d="
M 2633.00 192.00 
C 2618.34 192.00 2603.66 192.00 2589.00 192.00
C 2589.01 298.33 2588.99 404.67 2589.00 511.00
C 2603.67 511.00 2618.33 511.00 2633.00 511.00
C 2633.00 404.67 2633.00 298.33 2633.00 192.00 Z"/>
</g>
<g fill="#EFF0F2" fill-opacity="1.00" stroke="None">
<path d="
M 2729.00 192.00 
C 2713.67 192.00 2698.33 192.00 2683.00 192.00
C 2733.57 302.25 2784.70 412.38 2834.00 523.00
C 2860.82 470.20 2884.15 412.56 2910.08 358.08 C 2934.71 302.58 2960.12 247.43 2985.00 192.00
C 2969.92 193.26 2952.61 189.47 2938.92 193.92 C 2905.02 270.10 2869.89 345.85 2836.00 422.00
C 2815.80 386.19 2800.09 345.14 2781.78 307.22 C 2763.96 269.05 2746.67 230.21 2729.00 192.00 Z"/>
</g>
<g fill="#EFF0F2" fill-opacity="1.00" stroke="None">
<path d="
M 3275.00 192.00 
C 3192.33 192.00 3109.67 192.00 3027.00 192.00
C 3032.26 202.72 3037.86 213.58 3044.08 223.92 C 3046.89 242.35 3067.44 234.43 3081.00 236.00 C 3145.67 236.00 3210.33 236.00 3275.00 236.00
C 3275.00 221.33 3275.00 206.67 3275.00 192.00 Z"/>
</g>
<g fill="#000000" fill-opacity="1.00" stroke="None">
<path d="
M 602.00 274.00 
C 560.98 201.82 452.99 187.68 392.75 242.75 C 329.28 295.67 329.49 401.13 393.25 453.75 C 453.57 508.41 561.24 494.12 602.00 422.00
C 562.87 463.90 490.06 465.10 450.25 423.75 C 408.31 384.47 408.50 311.51 450.25 272.25 C 490.27 231.05 562.74 232.05 602.00 274.00 Z"/>
</g>
<g fill="#000000" fill-opacity="1.00" stroke="None">
<path d="
M 596.00 285.00 
C 562.14 244.99 495.57 242.44 459.08 280.08 C 420.53 315.09 421.09 381.27 459.25 416.75 C 496.33 453.04 562.21 451.22 596.00 411.00
C 553.69 429.71 499.90 394.95 502.00 348.00 C 499.97 300.96 553.72 266.56 596.00 285.00 Z"/>
</g>
<g fill="#000000" fill-opacity="1.00" stroke="None">
<path d="
M 612.00 311.00 
C 580.71 271.29 510.39 298.88 513.07 348.93 C 511.53 398.44 583.18 424.54 612.00 384.00
C 571.73 379.36 572.97 316.75 612.00 311.00 Z"/>
</g>
<g fill="#000000" fill-opacity="1.00" stroke="None">
<path d="
M 617.00 323.00 
C 585.98 322.38 585.93 373.70 617.00 373.00
C 621.12 357.03 621.11 338.95 617.00 323.00 Z"/>
</g>
<g fill="#EFF0F2" fill-opacity="1.00" stroke="None">
<path d="
M 1910.00 329.00 
C 1834.67 329.00 1759.33 329.00 1684.00 329.00
C 1684.00 343.67 1684.00 358.33 1684.00 373.00
C 1759.33 373.00 1834.67 373.00 1910.00 373.00
C 1910.00 358.33 1910.00 343.67 1910.00 329.00 Z"/>
</g>
<g fill="#EFF0F2" fill-opacity="1.00" stroke="None">
<path d="
M 3275.00 329.00 
C 3200.00 329.00 3125.01 329.00 3050.00 329.00
C 3050.00 343.67 3050.00 358.33 3050.00 373.00
C 3124.99 373.00 3200.01 373.00 3275.00 373.00
C 3275.00 358.33 3275.00 343.67 3275.00 329.00 Z"/>
</g>
<g fill="#EFF0F2" fill-opacity="1.00" stroke="None">
<path d="
M 1910.00 468.00 
C 1845.00 468.00 1780.00 468.00 1715.00 468.00 C 1701.26 469.47 1681.44 461.90 1677.77 479.77 C 1672.18 490.21 1666.98 500.76 1661.00 511.00
C 1743.99 511.00 1827.00 511.00 1910.00 511.00
C 1910.00 496.67 1910.00 482.33 1910.00 468.00 Z"/>
</g>
<g fill="#EFF0F2" fill-opacity="1.00" stroke="None">
<path d="
M 3275.00 468.00 
C 3210.33 468.00 3145.67 468.00 3081.00 468.00 C 3067.32 469.53 3047.19 461.80 3043.77 479.77 C 3038.62 490.46 3032.26 500.36 3027.00 511.00
C 3109.67 511.00 3192.33 511.00 3275.00 511.00
C 3275.00 496.67 3275.00 482.33 3275.00 468.00 Z"/>
</g>
</svg>